{
	"asset":{
		"generator":"Khronos glTF Blender I/O v5.0.21",
		"version":"2.0"
	},
	"scene":0,
	"scenes":[
		{
			"name":"Scene",
			"nodes":[
				0,
				1,
				2,
				3,
				4
			]
		}
	],
	"nodes":[
		{
			"mesh":0,
			"name":"Plane.002",
			"scale":[
				0.99967360496521,
				0.5995467901229858,
				0.49197229743003845
			],
			"translation":[
				0.0002550184726715088,
				0.0023469431325793266,
				0
			]
		},
		{
			"mesh":1,
			"name":"%P%Footprint"
		},
		{
			"mesh":2,
			"name":"%P%AnchorOut.001",
			"scale":[
				0.1305997669696808,
				0.1305997669696808,
				0.1305997669696808
			],
			"translation":[
				0.9889516234397888,
				0.013297781348228455,
				0
			]
		},
		{
			"mesh":3,
			"name":"%P%Center",
			"scale":[
				0.19623501598834991,
				0.19623501598834991,
				0.19623501598834991
			],
			"translation":[
				0.0006318092346191406,
				0.013297779485583305,
				-0.0012990720570087433
			]
		},
		{
			"mesh":4,
			"name":"%P%AnchorOut",
			"scale":[
				0.1305997669696808,
				0.1305997669696808,
				0.1305997669696808
			],
			"translation":[
				-0.9969608187675476,
				0.013297781348228455,
				0
			]
		}
	],
	"materials":[
		{
			"doubleSided":true,
			"name":"Ground",
			"pbrMetallicRoughness":{
				"baseColorFactor":[
					0.2911919355392456,
					0.09804756939411163,
					0.07878553867340088,
					1
				],
				"metallicFactor":0,
				"roughnessFactor":0.5
			}
		},
		{
			"doubleSided":true,
			"name":"%P%",
			"pbrMetallicRoughness":{
				"baseColorFactor":[
					0.8000156879425049,
					0.017849527299404144,
					0.659480094909668,
					1
				],
				"metallicFactor":0,
				"roughnessFactor":0.5
			}
		}
	],
	"meshes":[
		{
			"name":"Plane.003",
			"primitives":[
				{
					"attributes":{
						"POSITION":0,
						"NORMAL":1,
						"TEXCOORD_0":2
					},
					"indices":3,
					"material":0
				}
			]
		},
		{
			"name":"Plane",
			"primitives":[
				{
					"attributes":{
						"POSITION":4,
						"NORMAL":5,
						"TEXCOORD_0":6
					},
					"indices":3,
					"material":1
				}
			]
		},
		{
			"name":"Sphere.004",
			"primitives":[
				{
					"attributes":{
						"POSITION":7,
						"NORMAL":8,
						"TEXCOORD_0":9
					},
					"indices":10,
					"material":1
				}
			]
		},
		{
			"name":"Sphere.007",
			"primitives":[
				{
					"attributes":{
						"POSITION":11,
						"NORMAL":12,
						"TEXCOORD_0":13
					},
					"indices":10,
					"material":1
				}
			]
		},
		{
			"name":"Sphere.001",
			"primitives":[
				{
					"attributes":{
						"POSITION":14,
						"NORMAL":15,
						"TEXCOORD_0":16
					},
					"indices":10,
					"material":1
				}
			]
		}
	],
	"accessors":[
		{
			"bufferView":0,
			"componentType":5126,
			"count":4,
			"max":[
				1,
				0,
				1
			],
			"min":[
				-1,
				0,
				-1
			],
			"type":"VEC3"
		},
		{
			"bufferView":1,
			"componentType":5126,
			"count":4,
			"type":"VEC3"
		},
		{
			"bufferView":2,
			"componentType":5126,
			"count":4,
			"type":"VEC2"
		},
		{
			"bufferView":3,
			"componentType":5123,
			"count":6,
			"type":"SCALAR"
		},
		{
			"bufferView":4,
			"componentType":5126,
			"count":4,
			"max":[
				1,
				0,
				1
			],
			"min":[
				-1,
				0,
				-1
			],
			"type":"VEC3"
		},
		{
			"bufferView":5,
			"componentType":5126,
			"count":4,
			"type":"VEC3"
		},
		{
			"bufferView":6,
			"componentType":5126,
			"count":4,
			"type":"VEC2"
		},
		{
			"bufferView":7,
			"componentType":5126,
			"count":1984,
			"max":[
				0.9999997019767761,
				1,
				0.9999993443489075
			],
			"min":[
				-0.9999990463256836,
				-1,
				-1
			],
			"type":"VEC3"
		},
		{
			"bufferView":8,
			"componentType":5126,
			"count":1984,
			"type":"VEC3"
		},
		{
			"bufferView":9,
			"componentType":5126,
			"count":1984,
			"type":"VEC2"
		},
		{
			"bufferView":10,
			"componentType":5123,
			"count":2880,
			"type":"SCALAR"
		},
		{
			"bufferView":11,
			"componentType":5126,
			"count":1984,
			"max":[
				0.9999997019767761,
				1,
				0.9999993443489075
			],
			"min":[
				-0.9999990463256836,
				-1,
				-1
			],
			"type":"VEC3"
		},
		{
			"bufferView":12,
			"componentType":5126,
			"count":1984,
			"type":"VEC3"
		},
		{
			"bufferView":13,
			"componentType":5126,
			"count":1984,
			"type":"VEC2"
		},
		{
			"bufferView":14,
			"componentType":5126,
			"count":1984,
			"max":[
				0.9999997019767761,
				1,
				0.9999993443489075
			],
			"min":[
				-0.9999990463256836,
				-1,
				-1
			],
			"type":"VEC3"
		},
		{
			"bufferView":15,
			"componentType":5126,
			"count":1984,
			"type":"VEC3"
		},
		{
			"bufferView":16,
			"componentType":5126,
			"count":1984,
			"type":"VEC2"
		}
	],
	"bufferViews":[
		{
			"buffer":0,
			"byteLength":48,
			"byteOffset":0,
			"target":34962
		},
		{
			"buffer":0,
			"byteLength":48,
			"byteOffset":48,
			"target":34962
		},
		{
			"buffer":0,
			"byteLength":32,
			"byteOffset":96,
			"target":34962
		},
		{
			"buffer":0,
			"byteLength":12,
			"byteOffset":128,
			"target":34963
		},
		{
			"buffer":0,
			"byteLength":48,
			"byteOffset":140,
			"target":34962
		},
		{
			"buffer":0,
			"byteLength":48,
			"byteOffset":188,
			"target":34962
		},
		{
			"buffer":0,
			"byteLength":32,
			"byteOffset":236,
			"target":34962
		},
		{
			"buffer":0,
			"byteLength":23808,
			"byteOffset":268,
			"target":34962
		},
		{
			"buffer":0,
			"byteLength":23808,
			"byteOffset":24076,
			"target":34962
		},
		{
			"buffer":0,
			"byteLength":15872,
			"byteOffset":47884,
			"target":34962
		},
		{
			"buffer":0,
			"byteLength":5760,
			"byteOffset":63756,
			"target":34963
		},
		{
			"buffer":0,
			"byteLength":23808,
			"byteOffset":69516,
			"target":34962
		},
		{
			"buffer":0,
			"byteLength":23808,
			"byteOffset":93324,
			"target":34962
		},
		{
			"buffer":0,
			"byteLength":15872,
			"byteOffset":117132,
			"target":34962
		},
		{
			"buffer":0,
			"byteLength":23808,
			"byteOffset":133004,
			"target":34962
		},
		{
			"buffer":0,
			"byteLength":23808,
			"byteOffset":156812,
			"target":34962
		},
		{
			"buffer":0,
			"byteLength":15872,
			"byteOffset":180620,
			"target":34962
		}
	],
	"buffers":[
		{
			"byteLength":196492,
			"uri":"path_2.bin"
		}
	]
}
