{
	"asset":{
		"generator":"Khronos glTF Blender I/O v5.0.21",
		"version":"2.0"
	},
	"scene":0,
	"scenes":[
		{
			"name":"Scene",
			"nodes":[
				0,
				1,
				2,
				3,
				4,
				5,
				6
			]
		}
	],
	"nodes":[
		{
			"mesh":0,
			"name":"Plane.004",
			"rotation":[
				0,
				-0.7071067094802856,
				0,
				0.7071068286895752
			],
			"scale":[
				0.5562276244163513,
				0.1440512239933014,
				3.009382486343384
			],
			"translation":[
				-0.0028730351477861404,
				0.0023469431325793266,
				8.294900180771947e-05
			]
		},
		{
			"mesh":1,
			"name":"%P%Footprint",
			"scale":[
				3,
				3,
				3
			]
		},
		{
			"mesh":2,
			"name":"%P%AnchorOut.001",
			"scale":[
				0.19731523096561432,
				0.1305997669696808,
				0.19731523096561432
			],
			"translation":[
				3.0302248001098633,
				0.013297781348228455,
				8.294900180771947e-05
			]
		},
		{
			"mesh":3,
			"name":"%P%Center",
			"scale":[
				0.2964795231819153,
				0.19623501598834991,
				0.2964795231819153
			],
			"translation":[
				-0.002303765155375004,
				0.013297779485583305,
				-0.0018797398079186678
			]
		},
		{
			"mesh":4,
			"name":"%P%AnchorOut",
			"scale":[
				0.19731523096561432,
				0.1305997669696808,
				0.19731523096561432
			],
			"translation":[
				-2.9992499351501465,
				0.013297781348228455,
				8.294900180771947e-05
			]
		},
		{
			"mesh":5,
			"name":"%P%AnchorOut.002",
			"rotation":[
				0,
				-0.7071067094802856,
				0,
				0.70710688829422
			],
			"scale":[
				0.19731523096561432,
				0.1305997669696808,
				0.19731523096561432
			],
			"translation":[
				0.015487651340663433,
				0.013297781348228455,
				3.0148203372955322
			]
		},
		{
			"mesh":6,
			"name":"%P%AnchorOut.003",
			"rotation":[
				0,
				-0.7071067094802856,
				0,
				0.70710688829422
			],
			"scale":[
				0.19731523096561432,
				0.1305997669696808,
				0.19731523096561432
			],
			"translation":[
				0.015487290918827057,
				0.013297781348228455,
				-3.0146543979644775
			]
		}
	],
	"materials":[
		{
			"doubleSided":true,
			"name":"Ground",
			"pbrMetallicRoughness":{
				"baseColorFactor":[
					0.2911919355392456,
					0.09804756939411163,
					0.07878553867340088,
					1
				],
				"metallicFactor":0,
				"roughnessFactor":0.5
			}
		},
		{
			"doubleSided":true,
			"name":"%P%",
			"pbrMetallicRoughness":{
				"baseColorFactor":[
					0.8000156879425049,
					0.017849527299404144,
					0.659480094909668,
					1
				],
				"metallicFactor":0,
				"roughnessFactor":0.5
			}
		}
	],
	"meshes":[
		{
			"name":"Plane.005",
			"primitives":[
				{
					"attributes":{
						"POSITION":0,
						"NORMAL":1,
						"TEXCOORD_0":2
					},
					"indices":3,
					"material":0
				}
			]
		},
		{
			"name":"Plane",
			"primitives":[
				{
					"attributes":{
						"POSITION":4,
						"NORMAL":5,
						"TEXCOORD_0":6
					},
					"indices":7,
					"material":1
				}
			]
		},
		{
			"name":"Sphere.004",
			"primitives":[
				{
					"attributes":{
						"POSITION":8,
						"NORMAL":9,
						"TEXCOORD_0":10
					},
					"indices":11,
					"material":1
				}
			]
		},
		{
			"name":"Sphere.007",
			"primitives":[
				{
					"attributes":{
						"POSITION":12,
						"NORMAL":13,
						"TEXCOORD_0":14
					},
					"indices":11,
					"material":1
				}
			]
		},
		{
			"name":"Sphere.001",
			"primitives":[
				{
					"attributes":{
						"POSITION":15,
						"NORMAL":16,
						"TEXCOORD_0":17
					},
					"indices":11,
					"material":1
				}
			]
		},
		{
			"name":"Sphere.002",
			"primitives":[
				{
					"attributes":{
						"POSITION":18,
						"NORMAL":19,
						"TEXCOORD_0":20
					},
					"indices":11,
					"material":1
				}
			]
		},
		{
			"name":"Sphere.003",
			"primitives":[
				{
					"attributes":{
						"POSITION":21,
						"NORMAL":22,
						"TEXCOORD_0":23
					},
					"indices":11,
					"material":1
				}
			]
		}
	],
	"accessors":[
		{
			"bufferView":0,
			"componentType":5126,
			"count":12,
			"max":[
				5.410343170166016,
				1.862645149230957e-09,
				1
			],
			"min":[
				-5.410343170166016,
				0,
				-1
			],
			"type":"VEC3"
		},
		{
			"bufferView":1,
			"componentType":5126,
			"count":12,
			"type":"VEC3"
		},
		{
			"bufferView":2,
			"componentType":5126,
			"count":12,
			"type":"VEC2"
		},
		{
			"bufferView":3,
			"componentType":5123,
			"count":18,
			"type":"SCALAR"
		},
		{
			"bufferView":4,
			"componentType":5126,
			"count":4,
			"max":[
				1,
				0,
				1
			],
			"min":[
				-1,
				0,
				-1
			],
			"type":"VEC3"
		},
		{
			"bufferView":5,
			"componentType":5126,
			"count":4,
			"type":"VEC3"
		},
		{
			"bufferView":6,
			"componentType":5126,
			"count":4,
			"type":"VEC2"
		},
		{
			"bufferView":7,
			"componentType":5123,
			"count":6,
			"type":"SCALAR"
		},
		{
			"bufferView":8,
			"componentType":5126,
			"count":1984,
			"max":[
				0.9999997019767761,
				1,
				0.9999993443489075
			],
			"min":[
				-0.9999990463256836,
				-1,
				-1
			],
			"type":"VEC3"
		},
		{
			"bufferView":9,
			"componentType":5126,
			"count":1984,
			"type":"VEC3"
		},
		{
			"bufferView":10,
			"componentType":5126,
			"count":1984,
			"type":"VEC2"
		},
		{
			"bufferView":11,
			"componentType":5123,
			"count":2880,
			"type":"SCALAR"
		},
		{
			"bufferView":12,
			"componentType":5126,
			"count":1984,
			"max":[
				0.9999997019767761,
				1,
				0.9999993443489075
			],
			"min":[
				-0.9999990463256836,
				-1,
				-1
			],
			"type":"VEC3"
		},
		{
			"bufferView":13,
			"componentType":5126,
			"count":1984,
			"type":"VEC3"
		},
		{
			"bufferView":14,
			"componentType":5126,
			"count":1984,
			"type":"VEC2"
		},
		{
			"bufferView":15,
			"componentType":5126,
			"count":1984,
			"max":[
				0.9999997019767761,
				1,
				0.9999993443489075
			],
			"min":[
				-0.9999990463256836,
				-1,
				-1
			],
			"type":"VEC3"
		},
		{
			"bufferView":16,
			"componentType":5126,
			"count":1984,
			"type":"VEC3"
		},
		{
			"bufferView":17,
			"componentType":5126,
			"count":1984,
			"type":"VEC2"
		},
		{
			"bufferView":18,
			"componentType":5126,
			"count":1984,
			"max":[
				0.9999997019767761,
				1,
				0.9999993443489075
			],
			"min":[
				-0.9999990463256836,
				-1,
				-1
			],
			"type":"VEC3"
		},
		{
			"bufferView":19,
			"componentType":5126,
			"count":1984,
			"type":"VEC3"
		},
		{
			"bufferView":20,
			"componentType":5126,
			"count":1984,
			"type":"VEC2"
		},
		{
			"bufferView":21,
			"componentType":5126,
			"count":1984,
			"max":[
				0.9999997019767761,
				1,
				0.9999993443489075
			],
			"min":[
				-0.9999990463256836,
				-1,
				-1
			],
			"type":"VEC3"
		},
		{
			"bufferView":22,
			"componentType":5126,
			"count":1984,
			"type":"VEC3"
		},
		{
			"bufferView":23,
			"componentType":5126,
			"count":1984,
			"type":"VEC2"
		}
	],
	"bufferViews":[
		{
			"buffer":0,
			"byteLength":144,
			"byteOffset":0,
			"target":34962
		},
		{
			"buffer":0,
			"byteLength":144,
			"byteOffset":144,
			"target":34962
		},
		{
			"buffer":0,
			"byteLength":96,
			"byteOffset":288,
			"target":34962
		},
		{
			"buffer":0,
			"byteLength":36,
			"byteOffset":384,
			"target":34963
		},
		{
			"buffer":0,
			"byteLength":48,
			"byteOffset":420,
			"target":34962
		},
		{
			"buffer":0,
			"byteLength":48,
			"byteOffset":468,
			"target":34962
		},
		{
			"buffer":0,
			"byteLength":32,
			"byteOffset":516,
			"target":34962
		},
		{
			"buffer":0,
			"byteLength":12,
			"byteOffset":548,
			"target":34963
		},
		{
			"buffer":0,
			"byteLength":23808,
			"byteOffset":560,
			"target":34962
		},
		{
			"buffer":0,
			"byteLength":23808,
			"byteOffset":24368,
			"target":34962
		},
		{
			"buffer":0,
			"byteLength":15872,
			"byteOffset":48176,
			"target":34962
		},
		{
			"buffer":0,
			"byteLength":5760,
			"byteOffset":64048,
			"target":34963
		},
		{
			"buffer":0,
			"byteLength":23808,
			"byteOffset":69808,
			"target":34962
		},
		{
			"buffer":0,
			"byteLength":23808,
			"byteOffset":93616,
			"target":34962
		},
		{
			"buffer":0,
			"byteLength":15872,
			"byteOffset":117424,
			"target":34962
		},
		{
			"buffer":0,
			"byteLength":23808,
			"byteOffset":133296,
			"target":34962
		},
		{
			"buffer":0,
			"byteLength":23808,
			"byteOffset":157104,
			"target":34962
		},
		{
			"buffer":0,
			"byteLength":15872,
			"byteOffset":180912,
			"target":34962
		},
		{
			"buffer":0,
			"byteLength":23808,
			"byteOffset":196784,
			"target":34962
		},
		{
			"buffer":0,
			"byteLength":23808,
			"byteOffset":220592,
			"target":34962
		},
		{
			"buffer":0,
			"byteLength":15872,
			"byteOffset":244400,
			"target":34962
		},
		{
			"buffer":0,
			"byteLength":23808,
			"byteOffset":260272,
			"target":34962
		},
		{
			"buffer":0,
			"byteLength":23808,
			"byteOffset":284080,
			"target":34962
		},
		{
			"buffer":0,
			"byteLength":15872,
			"byteOffset":307888,
			"target":34962
		}
	],
	"buffers":[
		{
			"byteLength":323760,
			"uri":"storage_3x3.bin"
		}
	]
}
