{
	"asset":{
		"generator":"Khronos glTF Blender I/O v5.1.19",
		"version":"2.0"
	},
	"scene":0,
	"scenes":[
		{
			"name":"Scene",
			"nodes":[
				0,
				1,
				2,
				3,
				4,
				5,
				6,
				7,
				8,
				9,
				10,
				11
			]
		}
	],
	"nodes":[
		{
			"mesh":0,
			"name":"Cylinder",
			"scale":[
				0.06733127683401108,
				0.18848282098770142,
				0.10000000149011612
			],
			"translation":[
				-0.00974494218826294,
				0.29746246337890625,
				0
			]
		},
		{
			"mesh":1,
			"name":"Cylinder.001",
			"scale":[
				0.0336218886077404,
				0.06337148696184158,
				0.0336218886077404
			],
			"translation":[
				0.0015772618353366852,
				0.08210748434066772,
				0.045800380408763885
			]
		},
		{
			"mesh":2,
			"name":"Cylinder.002",
			"scale":[
				0.0336218886077404,
				0.06337148696184158,
				0.0336218886077404
			],
			"translation":[
				-0.0035257935523986816,
				0.08291004598140717,
				-0.04641891270875931
			]
		},
		{
			"mesh":3,
			"name":"Cone",
			"scale":[
				0.02685527876019478,
				0.02685527876019478,
				0.02685527876019478
			],
			"translation":[
				0.0015852758660912514,
				0.026772379875183105,
				0.0471077635884285
			]
		},
		{
			"mesh":4,
			"name":"Cone.001",
			"scale":[
				0.02685527876019478,
				0.02685527876019478,
				0.02685527876019478
			],
			"translation":[
				-0.0004163207486271858,
				0.026772379875183105,
				-0.046234890818595886
			]
		},
		{
			"mesh":5,
			"name":"Sphere",
			"scale":[
				0.07776002585887909,
				0.09630056470632553,
				0.12941741943359375
			],
			"translation":[
				-0.0072271209210157394,
				0.5149761438369751,
				0.0004628552123904228
			]
		},
		{
			"mesh":6,
			"name":"Cylinder.003",
			"rotation":[
				-0.11202587932348251,
				-0.02348833531141281,
				-0.039011452347040176,
				0.9926613569259644
			],
			"scale":[
				0.03391532227396965,
				0.12952455878257751,
				0.03635463863611221
			],
			"translation":[
				-0.013502690941095352,
				0.3685617744922638,
				0.09265941381454468
			]
		},
		{
			"mesh":7,
			"name":"Cylinder.004",
			"rotation":[
				0.2012893557548523,
				0.027933303266763687,
				-0.06859397143125534,
				0.9767279028892517
			],
			"scale":[
				0.03391532227396965,
				0.12952455878257751,
				0.03635463863611221
			],
			"translation":[
				-0.032129596918821335,
				0.3736710250377655,
				-0.10569271445274353
			]
		},
		{
			"mesh":8,
			"name":"Sphere.001",
			"scale":[
				0.02372788079082966,
				0.029385386034846306,
				0.03949074074625969
			],
			"translation":[
				0.04932618513703346,
				0.5249029994010925,
				0.03477798402309418
			]
		},
		{
			"mesh":9,
			"name":"Sphere.002",
			"scale":[
				0.02372788079082966,
				0.029385386034846306,
				0.03949074074625969
			],
			"translation":[
				0.04932618513703346,
				0.5249029994010925,
				-0.03543217480182648
			]
		},
		{
			"mesh":10,
			"name":"Sphere.003",
			"scale":[
				0.01230273861438036,
				0.01523611694574356,
				0.02047567255795002
			],
			"translation":[
				0.06341880559921265,
				0.5249029994010925,
				0.0431591160595417
			]
		},
		{
			"mesh":11,
			"name":"Sphere.004",
			"scale":[
				0.01230273861438036,
				0.01523611694574356,
				0.02047567255795002
			],
			"translation":[
				0.0643891990184784,
				0.5249029994010925,
				-0.045997120440006256
			]
		}
	],
	"materials":[
		{
			"doubleSided":true,
			"name":"Material.003",
			"pbrMetallicRoughness":{
				"baseColorFactor":[
					0.14099131524562836,
					0.14099131524562836,
					0.14099131524562836,
					1
				],
				"metallicFactor":0,
				"roughnessFactor":0.5
			}
		},
		{
			"doubleSided":true,
			"name":"Material.001",
			"pbrMetallicRoughness":{
				"baseColorFactor":[
					0,
					0,
					0,
					1
				],
				"metallicFactor":0,
				"roughnessFactor":0.5
			}
		},
		{
			"doubleSided":true,
			"name":"Material.002",
			"pbrMetallicRoughness":{
				"baseColorFactor":[
					0.1319826990365982,
					0.07708363980054855,
					0.02136405184864998,
					1
				],
				"metallicFactor":0,
				"roughnessFactor":0.5
			}
		},
		{
			"doubleSided":true,
			"name":"Material.004",
			"pbrMetallicRoughness":{
				"baseColorFactor":[
					0.07243326306343079,
					0.04491804540157318,
					0.08502701669931412,
					1
				],
				"metallicFactor":0,
				"roughnessFactor":0.5
			}
		},
		{
			"doubleSided":true,
			"name":"Material.005",
			"pbrMetallicRoughness":{
				"baseColorFactor":[
					0.800000011920929,
					0.800000011920929,
					0.800000011920929,
					1
				],
				"metallicFactor":0,
				"roughnessFactor":0.5
			}
		},
		{
			"doubleSided":true,
			"name":"Material.006",
			"pbrMetallicRoughness":{
				"baseColorFactor":[
					0,
					0,
					0,
					1
				],
				"metallicFactor":0,
				"roughnessFactor":0.5
			}
		}
	],
	"meshes":[
		{
			"name":"Cylinder",
			"primitives":[
				{
					"attributes":{
						"POSITION":0,
						"NORMAL":1,
						"TEXCOORD_0":2
					},
					"indices":3,
					"material":0
				}
			]
		},
		{
			"name":"Cylinder.001",
			"primitives":[
				{
					"attributes":{
						"POSITION":4,
						"NORMAL":5,
						"TEXCOORD_0":6
					},
					"indices":3,
					"material":1
				}
			]
		},
		{
			"name":"Cylinder.002",
			"primitives":[
				{
					"attributes":{
						"POSITION":7,
						"NORMAL":8,
						"TEXCOORD_0":9
					},
					"indices":3,
					"material":1
				}
			]
		},
		{
			"name":"Cone",
			"primitives":[
				{
					"attributes":{
						"POSITION":10,
						"NORMAL":11,
						"TEXCOORD_0":12
					},
					"indices":13,
					"material":2
				}
			]
		},
		{
			"name":"Cone.001",
			"primitives":[
				{
					"attributes":{
						"POSITION":14,
						"NORMAL":15,
						"TEXCOORD_0":16
					},
					"indices":13,
					"material":2
				}
			]
		},
		{
			"name":"Sphere",
			"primitives":[
				{
					"attributes":{
						"POSITION":17,
						"NORMAL":18,
						"TEXCOORD_0":19
					},
					"indices":20,
					"material":3
				}
			]
		},
		{
			"name":"Cylinder.003",
			"primitives":[
				{
					"attributes":{
						"POSITION":21,
						"NORMAL":22,
						"TEXCOORD_0":23
					},
					"indices":3,
					"material":2
				}
			]
		},
		{
			"name":"Cylinder.004",
			"primitives":[
				{
					"attributes":{
						"POSITION":24,
						"NORMAL":25,
						"TEXCOORD_0":26
					},
					"indices":3,
					"material":2
				}
			]
		},
		{
			"name":"Sphere.001",
			"primitives":[
				{
					"attributes":{
						"POSITION":27,
						"NORMAL":28,
						"TEXCOORD_0":29
					},
					"indices":20,
					"material":4
				}
			]
		},
		{
			"name":"Sphere.002",
			"primitives":[
				{
					"attributes":{
						"POSITION":30,
						"NORMAL":31,
						"TEXCOORD_0":32
					},
					"indices":20,
					"material":4
				}
			]
		},
		{
			"name":"Sphere.003",
			"primitives":[
				{
					"attributes":{
						"POSITION":33,
						"NORMAL":34,
						"TEXCOORD_0":35
					},
					"indices":20,
					"material":5
				}
			]
		},
		{
			"name":"Sphere.004",
			"primitives":[
				{
					"attributes":{
						"POSITION":36,
						"NORMAL":37,
						"TEXCOORD_0":38
					},
					"indices":20,
					"material":5
				}
			]
		}
	],
	"accessors":[
		{
			"bufferView":0,
			"componentType":5126,
			"count":130,
			"max":[
				1,
				1,
				1
			],
			"min":[
				-1,
				-1,
				-1
			],
			"type":"VEC3"
		},
		{
			"bufferView":1,
			"componentType":5126,
			"count":130,
			"type":"VEC3"
		},
		{
			"bufferView":2,
			"componentType":5126,
			"count":130,
			"type":"VEC2"
		},
		{
			"bufferView":3,
			"componentType":5123,
			"count":372,
			"type":"SCALAR"
		},
		{
			"bufferView":4,
			"componentType":5126,
			"count":130,
			"max":[
				1,
				1,
				1
			],
			"min":[
				-1,
				-1,
				-1
			],
			"type":"VEC3"
		},
		{
			"bufferView":5,
			"componentType":5126,
			"count":130,
			"type":"VEC3"
		},
		{
			"bufferView":6,
			"componentType":5126,
			"count":130,
			"type":"VEC2"
		},
		{
			"bufferView":7,
			"componentType":5126,
			"count":130,
			"max":[
				1,
				1,
				1
			],
			"min":[
				-1,
				-1,
				-1
			],
			"type":"VEC3"
		},
		{
			"bufferView":8,
			"componentType":5126,
			"count":130,
			"type":"VEC3"
		},
		{
			"bufferView":9,
			"componentType":5126,
			"count":130,
			"type":"VEC2"
		},
		{
			"bufferView":10,
			"componentType":5126,
			"count":65,
			"max":[
				1,
				1,
				1
			],
			"min":[
				-1,
				-1,
				-1
			],
			"type":"VEC3"
		},
		{
			"bufferView":11,
			"componentType":5126,
			"count":65,
			"type":"VEC3"
		},
		{
			"bufferView":12,
			"componentType":5126,
			"count":65,
			"type":"VEC2"
		},
		{
			"bufferView":13,
			"componentType":5123,
			"count":186,
			"type":"SCALAR"
		},
		{
			"bufferView":14,
			"componentType":5126,
			"count":65,
			"max":[
				1,
				1,
				1
			],
			"min":[
				-1,
				-1,
				-1
			],
			"type":"VEC3"
		},
		{
			"bufferView":15,
			"componentType":5126,
			"count":65,
			"type":"VEC3"
		},
		{
			"bufferView":16,
			"componentType":5126,
			"count":65,
			"type":"VEC2"
		},
		{
			"bufferView":17,
			"componentType":5126,
			"count":559,
			"max":[
				0.9999997019767761,
				1,
				0.9999993443489075
			],
			"min":[
				-0.9999990463256836,
				-1,
				-1
			],
			"type":"VEC3"
		},
		{
			"bufferView":18,
			"componentType":5126,
			"count":559,
			"type":"VEC3"
		},
		{
			"bufferView":19,
			"componentType":5126,
			"count":559,
			"type":"VEC2"
		},
		{
			"bufferView":20,
			"componentType":5123,
			"count":2880,
			"type":"SCALAR"
		},
		{
			"bufferView":21,
			"componentType":5126,
			"count":130,
			"max":[
				1,
				1,
				1
			],
			"min":[
				-1,
				-1,
				-1
			],
			"type":"VEC3"
		},
		{
			"bufferView":22,
			"componentType":5126,
			"count":130,
			"type":"VEC3"
		},
		{
			"bufferView":23,
			"componentType":5126,
			"count":130,
			"type":"VEC2"
		},
		{
			"bufferView":24,
			"componentType":5126,
			"count":130,
			"max":[
				1,
				1,
				1
			],
			"min":[
				-1,
				-1,
				-1
			],
			"type":"VEC3"
		},
		{
			"bufferView":25,
			"componentType":5126,
			"count":130,
			"type":"VEC3"
		},
		{
			"bufferView":26,
			"componentType":5126,
			"count":130,
			"type":"VEC2"
		},
		{
			"bufferView":27,
			"componentType":5126,
			"count":559,
			"max":[
				0.9999997019767761,
				1,
				0.9999993443489075
			],
			"min":[
				-0.9999990463256836,
				-1,
				-1
			],
			"type":"VEC3"
		},
		{
			"bufferView":28,
			"componentType":5126,
			"count":559,
			"type":"VEC3"
		},
		{
			"bufferView":29,
			"componentType":5126,
			"count":559,
			"type":"VEC2"
		},
		{
			"bufferView":30,
			"componentType":5126,
			"count":559,
			"max":[
				0.9999997019767761,
				1,
				0.9999993443489075
			],
			"min":[
				-0.9999990463256836,
				-1,
				-1
			],
			"type":"VEC3"
		},
		{
			"bufferView":31,
			"componentType":5126,
			"count":559,
			"type":"VEC3"
		},
		{
			"bufferView":32,
			"componentType":5126,
			"count":559,
			"type":"VEC2"
		},
		{
			"bufferView":33,
			"componentType":5126,
			"count":559,
			"max":[
				0.9999997019767761,
				1,
				0.9999993443489075
			],
			"min":[
				-0.9999990463256836,
				-1,
				-1
			],
			"type":"VEC3"
		},
		{
			"bufferView":34,
			"componentType":5126,
			"count":559,
			"type":"VEC3"
		},
		{
			"bufferView":35,
			"componentType":5126,
			"count":559,
			"type":"VEC2"
		},
		{
			"bufferView":36,
			"componentType":5126,
			"count":559,
			"max":[
				0.9999997019767761,
				1,
				0.9999993443489075
			],
			"min":[
				-0.9999990463256836,
				-1,
				-1
			],
			"type":"VEC3"
		},
		{
			"bufferView":37,
			"componentType":5126,
			"count":559,
			"type":"VEC3"
		},
		{
			"bufferView":38,
			"componentType":5126,
			"count":559,
			"type":"VEC2"
		}
	],
	"bufferViews":[
		{
			"buffer":0,
			"byteLength":1560,
			"byteOffset":0,
			"target":34962
		},
		{
			"buffer":0,
			"byteLength":1560,
			"byteOffset":1560,
			"target":34962
		},
		{
			"buffer":0,
			"byteLength":1040,
			"byteOffset":3120,
			"target":34962
		},
		{
			"buffer":0,
			"byteLength":744,
			"byteOffset":4160,
			"target":34963
		},
		{
			"buffer":0,
			"byteLength":1560,
			"byteOffset":4904,
			"target":34962
		},
		{
			"buffer":0,
			"byteLength":1560,
			"byteOffset":6464,
			"target":34962
		},
		{
			"buffer":0,
			"byteLength":1040,
			"byteOffset":8024,
			"target":34962
		},
		{
			"buffer":0,
			"byteLength":1560,
			"byteOffset":9064,
			"target":34962
		},
		{
			"buffer":0,
			"byteLength":1560,
			"byteOffset":10624,
			"target":34962
		},
		{
			"buffer":0,
			"byteLength":1040,
			"byteOffset":12184,
			"target":34962
		},
		{
			"buffer":0,
			"byteLength":780,
			"byteOffset":13224,
			"target":34962
		},
		{
			"buffer":0,
			"byteLength":780,
			"byteOffset":14004,
			"target":34962
		},
		{
			"buffer":0,
			"byteLength":520,
			"byteOffset":14784,
			"target":34962
		},
		{
			"buffer":0,
			"byteLength":372,
			"byteOffset":15304,
			"target":34963
		},
		{
			"buffer":0,
			"byteLength":780,
			"byteOffset":15676,
			"target":34962
		},
		{
			"buffer":0,
			"byteLength":780,
			"byteOffset":16456,
			"target":34962
		},
		{
			"buffer":0,
			"byteLength":520,
			"byteOffset":17236,
			"target":34962
		},
		{
			"buffer":0,
			"byteLength":6708,
			"byteOffset":17756,
			"target":34962
		},
		{
			"buffer":0,
			"byteLength":6708,
			"byteOffset":24464,
			"target":34962
		},
		{
			"buffer":0,
			"byteLength":4472,
			"byteOffset":31172,
			"target":34962
		},
		{
			"buffer":0,
			"byteLength":5760,
			"byteOffset":35644,
			"target":34963
		},
		{
			"buffer":0,
			"byteLength":1560,
			"byteOffset":41404,
			"target":34962
		},
		{
			"buffer":0,
			"byteLength":1560,
			"byteOffset":42964,
			"target":34962
		},
		{
			"buffer":0,
			"byteLength":1040,
			"byteOffset":44524,
			"target":34962
		},
		{
			"buffer":0,
			"byteLength":1560,
			"byteOffset":45564,
			"target":34962
		},
		{
			"buffer":0,
			"byteLength":1560,
			"byteOffset":47124,
			"target":34962
		},
		{
			"buffer":0,
			"byteLength":1040,
			"byteOffset":48684,
			"target":34962
		},
		{
			"buffer":0,
			"byteLength":6708,
			"byteOffset":49724,
			"target":34962
		},
		{
			"buffer":0,
			"byteLength":6708,
			"byteOffset":56432,
			"target":34962
		},
		{
			"buffer":0,
			"byteLength":4472,
			"byteOffset":63140,
			"target":34962
		},
		{
			"buffer":0,
			"byteLength":6708,
			"byteOffset":67612,
			"target":34962
		},
		{
			"buffer":0,
			"byteLength":6708,
			"byteOffset":74320,
			"target":34962
		},
		{
			"buffer":0,
			"byteLength":4472,
			"byteOffset":81028,
			"target":34962
		},
		{
			"buffer":0,
			"byteLength":6708,
			"byteOffset":85500,
			"target":34962
		},
		{
			"buffer":0,
			"byteLength":6708,
			"byteOffset":92208,
			"target":34962
		},
		{
			"buffer":0,
			"byteLength":4472,
			"byteOffset":98916,
			"target":34962
		},
		{
			"buffer":0,
			"byteLength":6708,
			"byteOffset":103388,
			"target":34962
		},
		{
			"buffer":0,
			"byteLength":6708,
			"byteOffset":110096,
			"target":34962
		},
		{
			"buffer":0,
			"byteLength":4472,
			"byteOffset":116804,
			"target":34962
		}
	],
	"buffers":[
		{
			"byteLength":121276,
			"uri":"human.bin"
		}
	]
}
