{
	"asset":{
		"generator":"Khronos glTF Blender I/O v5.0.21",
		"version":"2.0"
	},
	"scene":0,
	"scenes":[
		{
			"name":"Scene",
			"nodes":[
				0,
				1,
				2,
				3,
				4,
				5,
				6,
				7
			]
		}
	],
	"nodes":[
		{
			"mesh":0,
			"name":"Cylinder.004",
			"rotation":[
				0.5,
				0.5,
				-0.5,
				0.5000000596046448
			],
			"scale":[
				0.7665433883666992,
				2.4825823307037354,
				0.674848198890686
			],
			"translation":[
				0.004046326503157616,
				0.758819043636322,
				-0.023541390895843506
			]
		},
		{
			"mesh":1,
			"name":"Cylinder.001",
			"rotation":[
				0.7071068286895752,
				0,
				0,
				0.7071068286895752
			],
			"scale":[
				0.7665433883666992,
				2.4825823307037354,
				0.674848198890686
			],
			"translation":[
				0.004046326503157616,
				0.758819043636322,
				-0.023541390895843506
			]
		},
		{
			"mesh":2,
			"name":"%P%Footprint"
		},
		{
			"mesh":3,
			"name":"%P%AnchorIn.002",
			"scale":[
				0.1305997669696808,
				0.1305997669696808,
				0.1305997669696808
			],
			"translation":[
				0.9889516234397888,
				0.013297781348228455,
				0
			]
		},
		{
			"mesh":4,
			"name":"%P%AnchorIn.003",
			"scale":[
				0.1305997669696808,
				0.1305997669696808,
				0.1305997669696808
			],
			"translation":[
				-1.0096445083618164,
				0.013297781348228455,
				0
			]
		},
		{
			"mesh":5,
			"name":"%P%Center",
			"scale":[
				0.19623501598834991,
				0.19623501598834991,
				0.19623501598834991
			],
			"translation":[
				0.0006318092346191406,
				0.013297779485583305,
				-0.0012990720570087433
			]
		},
		{
			"mesh":6,
			"name":"%P%AnchorIn",
			"rotation":[
				0,
				-0.7071067094802856,
				0,
				0.7071068286895752
			],
			"scale":[
				0.1305997669696808,
				0.1305997669696808,
				0.1305997669696808
			],
			"translation":[
				-0.01034635305404663,
				0.013297781348228455,
				0.999298095703125
			]
		},
		{
			"mesh":7,
			"name":"%P%AnchorIn.001",
			"rotation":[
				0,
				-0.7071067094802856,
				0,
				0.7071068286895752
			],
			"scale":[
				0.1305997669696808,
				0.1305997669696808,
				0.1305997669696808
			],
			"translation":[
				-0.010346531867980957,
				0.013297781348228455,
				-0.999298095703125
			]
		}
	],
	"materials":[
		{
			"doubleSided":true,
			"name":"Material.001",
			"pbrMetallicRoughness":{
				"baseColorFactor":[
					0.023114344105124474,
					0.002103704260662198,
					0,
					1
				],
				"metallicFactor":0,
				"roughnessFactor":0.5
			}
		},
		{
			"doubleSided":true,
			"name":"%P%",
			"pbrMetallicRoughness":{
				"baseColorFactor":[
					0.8000156879425049,
					0.017849527299404144,
					0.659480094909668,
					1
				],
				"metallicFactor":0,
				"roughnessFactor":0.5
			}
		}
	],
	"meshes":[
		{
			"name":"Cylinder.004",
			"primitives":[
				{
					"attributes":{
						"POSITION":0,
						"NORMAL":1,
						"TEXCOORD_0":2
					},
					"indices":3,
					"material":0
				}
			]
		},
		{
			"name":"Cylinder.005",
			"primitives":[
				{
					"attributes":{
						"POSITION":4,
						"NORMAL":5,
						"TEXCOORD_0":6
					},
					"indices":7,
					"material":0
				}
			]
		},
		{
			"name":"Plane",
			"primitives":[
				{
					"attributes":{
						"POSITION":8,
						"NORMAL":9,
						"TEXCOORD_0":10
					},
					"indices":11,
					"material":1
				}
			]
		},
		{
			"name":"Sphere.004",
			"primitives":[
				{
					"attributes":{
						"POSITION":12,
						"NORMAL":13,
						"TEXCOORD_0":14
					},
					"indices":15,
					"material":1
				}
			]
		},
		{
			"name":"Sphere.006",
			"primitives":[
				{
					"attributes":{
						"POSITION":16,
						"NORMAL":17,
						"TEXCOORD_0":18
					},
					"indices":15,
					"material":1
				}
			]
		},
		{
			"name":"Sphere.007",
			"primitives":[
				{
					"attributes":{
						"POSITION":19,
						"NORMAL":20,
						"TEXCOORD_0":21
					},
					"indices":15,
					"material":1
				}
			]
		},
		{
			"name":"Sphere.008",
			"primitives":[
				{
					"attributes":{
						"POSITION":22,
						"NORMAL":23,
						"TEXCOORD_0":24
					},
					"indices":15,
					"material":1
				}
			]
		},
		{
			"name":"Sphere.009",
			"primitives":[
				{
					"attributes":{
						"POSITION":25,
						"NORMAL":26,
						"TEXCOORD_0":27
					},
					"indices":15,
					"material":1
				}
			]
		}
	],
	"accessors":[
		{
			"bufferView":0,
			"componentType":5126,
			"count":116,
			"max":[
				1,
				0.40917468070983887,
				1.1324175596237183
			],
			"min":[
				-0.9999999403953552,
				-0.40917444229125977,
				0.0034087449312210083
			],
			"type":"VEC3"
		},
		{
			"bufferView":1,
			"componentType":5126,
			"count":116,
			"type":"VEC3"
		},
		{
			"bufferView":2,
			"componentType":5126,
			"count":116,
			"type":"VEC2"
		},
		{
			"bufferView":3,
			"componentType":5123,
			"count":246,
			"type":"SCALAR"
		},
		{
			"bufferView":4,
			"componentType":5126,
			"count":113,
			"max":[
				1,
				0.40917468070983887,
				1.1324175596237183
			],
			"min":[
				-0.9999999403953552,
				-0.40917444229125977,
				0.0034087449312210083
			],
			"type":"VEC3"
		},
		{
			"bufferView":5,
			"componentType":5126,
			"count":113,
			"type":"VEC3"
		},
		{
			"bufferView":6,
			"componentType":5126,
			"count":113,
			"type":"VEC2"
		},
		{
			"bufferView":7,
			"componentType":5123,
			"count":249,
			"type":"SCALAR"
		},
		{
			"bufferView":8,
			"componentType":5126,
			"count":4,
			"max":[
				1,
				0,
				1
			],
			"min":[
				-1,
				0,
				-1
			],
			"type":"VEC3"
		},
		{
			"bufferView":9,
			"componentType":5126,
			"count":4,
			"type":"VEC3"
		},
		{
			"bufferView":10,
			"componentType":5126,
			"count":4,
			"type":"VEC2"
		},
		{
			"bufferView":11,
			"componentType":5123,
			"count":6,
			"type":"SCALAR"
		},
		{
			"bufferView":12,
			"componentType":5126,
			"count":1984,
			"max":[
				0.9999997019767761,
				1,
				0.9999993443489075
			],
			"min":[
				-0.9999990463256836,
				-1,
				-1
			],
			"type":"VEC3"
		},
		{
			"bufferView":13,
			"componentType":5126,
			"count":1984,
			"type":"VEC3"
		},
		{
			"bufferView":14,
			"componentType":5126,
			"count":1984,
			"type":"VEC2"
		},
		{
			"bufferView":15,
			"componentType":5123,
			"count":2880,
			"type":"SCALAR"
		},
		{
			"bufferView":16,
			"componentType":5126,
			"count":1984,
			"max":[
				0.9999997019767761,
				1,
				0.9999993443489075
			],
			"min":[
				-0.9999990463256836,
				-1,
				-1
			],
			"type":"VEC3"
		},
		{
			"bufferView":17,
			"componentType":5126,
			"count":1984,
			"type":"VEC3"
		},
		{
			"bufferView":18,
			"componentType":5126,
			"count":1984,
			"type":"VEC2"
		},
		{
			"bufferView":19,
			"componentType":5126,
			"count":1984,
			"max":[
				0.9999997019767761,
				1,
				0.9999993443489075
			],
			"min":[
				-0.9999990463256836,
				-1,
				-1
			],
			"type":"VEC3"
		},
		{
			"bufferView":20,
			"componentType":5126,
			"count":1984,
			"type":"VEC3"
		},
		{
			"bufferView":21,
			"componentType":5126,
			"count":1984,
			"type":"VEC2"
		},
		{
			"bufferView":22,
			"componentType":5126,
			"count":1984,
			"max":[
				0.9999997019767761,
				1,
				0.9999993443489075
			],
			"min":[
				-0.9999990463256836,
				-1,
				-1
			],
			"type":"VEC3"
		},
		{
			"bufferView":23,
			"componentType":5126,
			"count":1984,
			"type":"VEC3"
		},
		{
			"bufferView":24,
			"componentType":5126,
			"count":1984,
			"type":"VEC2"
		},
		{
			"bufferView":25,
			"componentType":5126,
			"count":1984,
			"max":[
				0.9999997019767761,
				1,
				0.9999993443489075
			],
			"min":[
				-0.9999990463256836,
				-1,
				-1
			],
			"type":"VEC3"
		},
		{
			"bufferView":26,
			"componentType":5126,
			"count":1984,
			"type":"VEC3"
		},
		{
			"bufferView":27,
			"componentType":5126,
			"count":1984,
			"type":"VEC2"
		}
	],
	"bufferViews":[
		{
			"buffer":0,
			"byteLength":1392,
			"byteOffset":0,
			"target":34962
		},
		{
			"buffer":0,
			"byteLength":1392,
			"byteOffset":1392,
			"target":34962
		},
		{
			"buffer":0,
			"byteLength":928,
			"byteOffset":2784,
			"target":34962
		},
		{
			"buffer":0,
			"byteLength":492,
			"byteOffset":3712,
			"target":34963
		},
		{
			"buffer":0,
			"byteLength":1356,
			"byteOffset":4204,
			"target":34962
		},
		{
			"buffer":0,
			"byteLength":1356,
			"byteOffset":5560,
			"target":34962
		},
		{
			"buffer":0,
			"byteLength":904,
			"byteOffset":6916,
			"target":34962
		},
		{
			"buffer":0,
			"byteLength":498,
			"byteOffset":7820,
			"target":34963
		},
		{
			"buffer":0,
			"byteLength":48,
			"byteOffset":8320,
			"target":34962
		},
		{
			"buffer":0,
			"byteLength":48,
			"byteOffset":8368,
			"target":34962
		},
		{
			"buffer":0,
			"byteLength":32,
			"byteOffset":8416,
			"target":34962
		},
		{
			"buffer":0,
			"byteLength":12,
			"byteOffset":8448,
			"target":34963
		},
		{
			"buffer":0,
			"byteLength":23808,
			"byteOffset":8460,
			"target":34962
		},
		{
			"buffer":0,
			"byteLength":23808,
			"byteOffset":32268,
			"target":34962
		},
		{
			"buffer":0,
			"byteLength":15872,
			"byteOffset":56076,
			"target":34962
		},
		{
			"buffer":0,
			"byteLength":5760,
			"byteOffset":71948,
			"target":34963
		},
		{
			"buffer":0,
			"byteLength":23808,
			"byteOffset":77708,
			"target":34962
		},
		{
			"buffer":0,
			"byteLength":23808,
			"byteOffset":101516,
			"target":34962
		},
		{
			"buffer":0,
			"byteLength":15872,
			"byteOffset":125324,
			"target":34962
		},
		{
			"buffer":0,
			"byteLength":23808,
			"byteOffset":141196,
			"target":34962
		},
		{
			"buffer":0,
			"byteLength":23808,
			"byteOffset":165004,
			"target":34962
		},
		{
			"buffer":0,
			"byteLength":15872,
			"byteOffset":188812,
			"target":34962
		},
		{
			"buffer":0,
			"byteLength":23808,
			"byteOffset":204684,
			"target":34962
		},
		{
			"buffer":0,
			"byteLength":23808,
			"byteOffset":228492,
			"target":34962
		},
		{
			"buffer":0,
			"byteLength":15872,
			"byteOffset":252300,
			"target":34962
		},
		{
			"buffer":0,
			"byteLength":23808,
			"byteOffset":268172,
			"target":34962
		},
		{
			"buffer":0,
			"byteLength":23808,
			"byteOffset":291980,
			"target":34962
		},
		{
			"buffer":0,
			"byteLength":15872,
			"byteOffset":315788,
			"target":34962
		}
	],
	"buffers":[
		{
			"byteLength":331660,
			"uri":"tunnel_4.bin"
		}
	]
}
