{
	"asset":{
		"generator":"Khronos glTF Blender I/O v5.0.21",
		"version":"2.0"
	},
	"scene":0,
	"scenes":[
		{
			"name":"Scene",
			"nodes":[
				0,
				1,
				2,
				3,
				4
			]
		}
	],
	"nodes":[
		{
			"mesh":0,
			"name":"Cylinder.004",
			"rotation":[
				0.5,
				0.5,
				-0.5,
				0.5000000596046448
			],
			"scale":[
				0.7665433883666992,
				2.4825823307037354,
				0.674848198890686
			],
			"translation":[
				0.004046326503157616,
				0.758819043636322,
				-0.023541390895843506
			]
		},
		{
			"mesh":1,
			"name":"%P%Footprint"
		},
		{
			"mesh":2,
			"name":"%P%AnchorIn.001",
			"scale":[
				0.1305997669696808,
				0.1305997669696808,
				0.1305997669696808
			],
			"translation":[
				0.9889516234397888,
				0.013297781348228455,
				0
			]
		},
		{
			"mesh":3,
			"name":"%P%AnchorIn.002",
			"scale":[
				0.1305997669696808,
				0.1305997669696808,
				0.1305997669696808
			],
			"translation":[
				-1.0096445083618164,
				0.013297781348228455,
				0
			]
		},
		{
			"mesh":4,
			"name":"%P%Center",
			"scale":[
				0.19623501598834991,
				0.19623501598834991,
				0.19623501598834991
			],
			"translation":[
				0.0006318092346191406,
				0.013297779485583305,
				-0.0012990720570087433
			]
		}
	],
	"materials":[
		{
			"doubleSided":true,
			"name":"Material.001",
			"pbrMetallicRoughness":{
				"baseColorFactor":[
					0.023114344105124474,
					0.002103704260662198,
					0,
					1
				],
				"metallicFactor":0,
				"roughnessFactor":0.5
			}
		},
		{
			"doubleSided":true,
			"name":"%P%",
			"pbrMetallicRoughness":{
				"baseColorFactor":[
					0.8000156879425049,
					0.017849527299404144,
					0.659480094909668,
					1
				],
				"metallicFactor":0,
				"roughnessFactor":0.5
			}
		}
	],
	"meshes":[
		{
			"name":"Cylinder.004",
			"primitives":[
				{
					"attributes":{
						"POSITION":0,
						"NORMAL":1,
						"TEXCOORD_0":2
					},
					"indices":3,
					"material":0
				}
			]
		},
		{
			"name":"Plane",
			"primitives":[
				{
					"attributes":{
						"POSITION":4,
						"NORMAL":5,
						"TEXCOORD_0":6
					},
					"indices":7,
					"material":1
				}
			]
		},
		{
			"name":"Sphere.004",
			"primitives":[
				{
					"attributes":{
						"POSITION":8,
						"NORMAL":9,
						"TEXCOORD_0":10
					},
					"indices":11,
					"material":1
				}
			]
		},
		{
			"name":"Sphere.006",
			"primitives":[
				{
					"attributes":{
						"POSITION":12,
						"NORMAL":13,
						"TEXCOORD_0":14
					},
					"indices":11,
					"material":1
				}
			]
		},
		{
			"name":"Sphere.007",
			"primitives":[
				{
					"attributes":{
						"POSITION":15,
						"NORMAL":16,
						"TEXCOORD_0":17
					},
					"indices":11,
					"material":1
				}
			]
		}
	],
	"accessors":[
		{
			"bufferView":0,
			"componentType":5126,
			"count":140,
			"max":[
				1,
				0.40917468070983887,
				1.1324175596237183
			],
			"min":[
				-0.9999999403953552,
				-0.40917444229125977,
				-0.3231527805328369
			],
			"type":"VEC3"
		},
		{
			"bufferView":1,
			"componentType":5126,
			"count":140,
			"type":"VEC3"
		},
		{
			"bufferView":2,
			"componentType":5126,
			"count":140,
			"type":"VEC2"
		},
		{
			"bufferView":3,
			"componentType":5123,
			"count":336,
			"type":"SCALAR"
		},
		{
			"bufferView":4,
			"componentType":5126,
			"count":4,
			"max":[
				1,
				0,
				1
			],
			"min":[
				-1,
				0,
				-1
			],
			"type":"VEC3"
		},
		{
			"bufferView":5,
			"componentType":5126,
			"count":4,
			"type":"VEC3"
		},
		{
			"bufferView":6,
			"componentType":5126,
			"count":4,
			"type":"VEC2"
		},
		{
			"bufferView":7,
			"componentType":5123,
			"count":6,
			"type":"SCALAR"
		},
		{
			"bufferView":8,
			"componentType":5126,
			"count":1984,
			"max":[
				0.9999997019767761,
				1,
				0.9999993443489075
			],
			"min":[
				-0.9999990463256836,
				-1,
				-1
			],
			"type":"VEC3"
		},
		{
			"bufferView":9,
			"componentType":5126,
			"count":1984,
			"type":"VEC3"
		},
		{
			"bufferView":10,
			"componentType":5126,
			"count":1984,
			"type":"VEC2"
		},
		{
			"bufferView":11,
			"componentType":5123,
			"count":2880,
			"type":"SCALAR"
		},
		{
			"bufferView":12,
			"componentType":5126,
			"count":1984,
			"max":[
				0.9999997019767761,
				1,
				0.9999993443489075
			],
			"min":[
				-0.9999990463256836,
				-1,
				-1
			],
			"type":"VEC3"
		},
		{
			"bufferView":13,
			"componentType":5126,
			"count":1984,
			"type":"VEC3"
		},
		{
			"bufferView":14,
			"componentType":5126,
			"count":1984,
			"type":"VEC2"
		},
		{
			"bufferView":15,
			"componentType":5126,
			"count":1984,
			"max":[
				0.9999997019767761,
				1,
				0.9999993443489075
			],
			"min":[
				-0.9999990463256836,
				-1,
				-1
			],
			"type":"VEC3"
		},
		{
			"bufferView":16,
			"componentType":5126,
			"count":1984,
			"type":"VEC3"
		},
		{
			"bufferView":17,
			"componentType":5126,
			"count":1984,
			"type":"VEC2"
		}
	],
	"bufferViews":[
		{
			"buffer":0,
			"byteLength":1680,
			"byteOffset":0,
			"target":34962
		},
		{
			"buffer":0,
			"byteLength":1680,
			"byteOffset":1680,
			"target":34962
		},
		{
			"buffer":0,
			"byteLength":1120,
			"byteOffset":3360,
			"target":34962
		},
		{
			"buffer":0,
			"byteLength":672,
			"byteOffset":4480,
			"target":34963
		},
		{
			"buffer":0,
			"byteLength":48,
			"byteOffset":5152,
			"target":34962
		},
		{
			"buffer":0,
			"byteLength":48,
			"byteOffset":5200,
			"target":34962
		},
		{
			"buffer":0,
			"byteLength":32,
			"byteOffset":5248,
			"target":34962
		},
		{
			"buffer":0,
			"byteLength":12,
			"byteOffset":5280,
			"target":34963
		},
		{
			"buffer":0,
			"byteLength":23808,
			"byteOffset":5292,
			"target":34962
		},
		{
			"buffer":0,
			"byteLength":23808,
			"byteOffset":29100,
			"target":34962
		},
		{
			"buffer":0,
			"byteLength":15872,
			"byteOffset":52908,
			"target":34962
		},
		{
			"buffer":0,
			"byteLength":5760,
			"byteOffset":68780,
			"target":34963
		},
		{
			"buffer":0,
			"byteLength":23808,
			"byteOffset":74540,
			"target":34962
		},
		{
			"buffer":0,
			"byteLength":23808,
			"byteOffset":98348,
			"target":34962
		},
		{
			"buffer":0,
			"byteLength":15872,
			"byteOffset":122156,
			"target":34962
		},
		{
			"buffer":0,
			"byteLength":23808,
			"byteOffset":138028,
			"target":34962
		},
		{
			"buffer":0,
			"byteLength":23808,
			"byteOffset":161836,
			"target":34962
		},
		{
			"buffer":0,
			"byteLength":15872,
			"byteOffset":185644,
			"target":34962
		}
	],
	"buffers":[
		{
			"byteLength":201516,
			"uri":"tunnel_2.bin"
		}
	]
}
