{
	"asset":{
		"generator":"Khronos glTF Blender I/O v5.0.21",
		"version":"2.0"
	},
	"scene":0,
	"scenes":[
		{
			"name":"Scene",
			"nodes":[
				0,
				1,
				2,
				3,
				4,
				5,
				6,
				7,
				8,
				9,
				10,
				11
			]
		}
	],
	"nodes":[
		{
			"mesh":0,
			"name":"Cylinder",
			"rotation":[
				0.7071068286895752,
				0,
				0,
				0.7071068286895752
			],
			"scale":[
				0.7686948776245117,
				0.5169352889060974,
				0.674848198890686
			],
			"translation":[
				0.03228026628494263,
				0.6019725203514099,
				2.488288164138794
			]
		},
		{
			"mesh":1,
			"name":"Sphere",
			"scale":[
				3.0216362476348877,
				3.0216362476348877,
				3.0216362476348877
			],
			"translation":[
				0.01560172438621521,
				0.4948165714740753,
				0.017482340335845947
			]
		},
		{
			"mesh":2,
			"name":"Plane.001",
			"rotation":[
				0,
				-0.7071067094802856,
				0,
				0.7071068286895752
			],
			"scale":[
				0.3073984980583191,
				1.1882432699203491,
				2.9783389568328857
			],
			"translation":[
				0.01560172438621521,
				0.12285116314888,
				0.017482340335845947
			]
		},
		{
			"mesh":3,
			"name":"Cylinder.001",
			"rotation":[
				0.7071068286895752,
				0,
				0,
				0.7071068286895752
			],
			"scale":[
				0.7686948776245117,
				0.5169352889060974,
				0.674848198890686
			],
			"translation":[
				0.03228026628494263,
				0.6019725203514099,
				-3.0982978343963623
			]
		},
		{
			"mesh":4,
			"name":"Cylinder.002",
			"rotation":[
				0.5,
				0.5,
				-0.5,
				0.5000000596046448
			],
			"scale":[
				0.7665433883666992,
				0.5169352889060974,
				0.674848198890686
			],
			"translation":[
				2.4867711067199707,
				0.6019725203514099,
				-0.02354145050048828
			]
		},
		{
			"mesh":5,
			"name":"Cylinder.003",
			"rotation":[
				0.5,
				0.5,
				-0.5,
				0.5000000596046448
			],
			"scale":[
				0.7665433883666992,
				0.5169352889060974,
				0.674848198890686
			],
			"translation":[
				-3.104156970977783,
				0.6019725203514099,
				-0.02354145050048828
			]
		},
		{
			"mesh":6,
			"name":"%P%Footprint",
			"scale":[
				3,
				3,
				3
			]
		},
		{
			"mesh":7,
			"name":"%P%AnchorIn.003",
			"scale":[
				0.1305997669696808,
				0.1305997669696808,
				0.1305997669696808
			],
			"translation":[
				2.9971907138824463,
				0.013297781348228455,
				0
			]
		},
		{
			"mesh":8,
			"name":"%P%AnchorIn",
			"scale":[
				0.1305997669696808,
				0.1305997669696808,
				0.1305997669696808
			],
			"translation":[
				-0.002413414418697357,
				0.013297781348228455,
				2.999906301498413
			]
		},
		{
			"mesh":9,
			"name":"%P%AnchorIn.002",
			"scale":[
				0.1305997669696808,
				0.1305997669696808,
				0.1305997669696808
			],
			"translation":[
				0.0012903809547424316,
				0.013297781348228455,
				-3.005234718322754
			]
		},
		{
			"mesh":10,
			"name":"%P%AnchorIn.001",
			"scale":[
				0.1305997669696808,
				0.1305997669696808,
				0.1305997669696808
			],
			"translation":[
				-3.0028975009918213,
				0.013297781348228455,
				0
			]
		},
		{
			"mesh":11,
			"name":"%P%Center",
			"scale":[
				0.19623501598834991,
				0.19623501598834991,
				0.19623501598834991
			],
			"translation":[
				0.00835662242025137,
				0.013297779485583305,
				0.037825167179107666
			]
		}
	],
	"materials":[
		{
			"doubleSided":true,
			"name":"Material.001",
			"pbrMetallicRoughness":{
				"baseColorFactor":[
					0.023114344105124474,
					0.002103704260662198,
					0,
					1
				],
				"metallicFactor":0,
				"roughnessFactor":0.5
			}
		},
		{
			"doubleSided":true,
			"name":"Material.002",
			"pbrMetallicRoughness":{
				"baseColorFactor":[
					0.23567357659339905,
					0.3743426501750946,
					0.36440348625183105,
					1
				],
				"metallicFactor":0,
				"roughnessFactor":0.5
			}
		},
		{
			"doubleSided":true,
			"name":"Material.003",
			"pbrMetallicRoughness":{
				"baseColorFactor":[
					0.6847777962684631,
					0.9456278085708618,
					1,
					1
				],
				"metallicFactor":0,
				"roughnessFactor":0.5
			}
		},
		{
			"doubleSided":true,
			"name":"%P%",
			"pbrMetallicRoughness":{
				"baseColorFactor":[
					0.8000156879425049,
					0.017849527299404144,
					0.659480094909668,
					1
				],
				"metallicFactor":0,
				"roughnessFactor":0.5
			}
		}
	],
	"meshes":[
		{
			"name":"Cylinder",
			"primitives":[
				{
					"attributes":{
						"POSITION":0,
						"NORMAL":1,
						"TEXCOORD_0":2
					},
					"indices":3,
					"material":0
				}
			]
		},
		{
			"name":"Sphere",
			"primitives":[
				{
					"attributes":{
						"POSITION":4,
						"NORMAL":5,
						"TEXCOORD_0":6
					},
					"indices":7,
					"material":0
				},
				{
					"attributes":{
						"POSITION":8,
						"NORMAL":9,
						"TEXCOORD_0":10
					},
					"indices":11,
					"material":1
				}
			]
		},
		{
			"name":"Plane.002",
			"primitives":[
				{
					"attributes":{
						"POSITION":12,
						"NORMAL":13,
						"TEXCOORD_0":14
					},
					"indices":15,
					"material":2
				}
			]
		},
		{
			"name":"Cylinder.001",
			"primitives":[
				{
					"attributes":{
						"POSITION":16,
						"NORMAL":17,
						"TEXCOORD_0":18
					},
					"indices":3,
					"material":0
				}
			]
		},
		{
			"name":"Cylinder.002",
			"primitives":[
				{
					"attributes":{
						"POSITION":19,
						"NORMAL":20,
						"TEXCOORD_0":21
					},
					"indices":3,
					"material":0
				}
			]
		},
		{
			"name":"Cylinder.003",
			"primitives":[
				{
					"attributes":{
						"POSITION":22,
						"NORMAL":23,
						"TEXCOORD_0":24
					},
					"indices":3,
					"material":0
				}
			]
		},
		{
			"name":"Plane",
			"primitives":[
				{
					"attributes":{
						"POSITION":25,
						"NORMAL":26,
						"TEXCOORD_0":27
					},
					"indices":28,
					"material":3
				}
			]
		},
		{
			"name":"Sphere.001",
			"primitives":[
				{
					"attributes":{
						"POSITION":29,
						"NORMAL":30,
						"TEXCOORD_0":31
					},
					"indices":32,
					"material":3
				}
			]
		},
		{
			"name":"Sphere.002",
			"primitives":[
				{
					"attributes":{
						"POSITION":33,
						"NORMAL":34,
						"TEXCOORD_0":35
					},
					"indices":32,
					"material":3
				}
			]
		},
		{
			"name":"Sphere.003",
			"primitives":[
				{
					"attributes":{
						"POSITION":36,
						"NORMAL":37,
						"TEXCOORD_0":38
					},
					"indices":32,
					"material":3
				}
			]
		},
		{
			"name":"Sphere.004",
			"primitives":[
				{
					"attributes":{
						"POSITION":39,
						"NORMAL":40,
						"TEXCOORD_0":41
					},
					"indices":32,
					"material":3
				}
			]
		},
		{
			"name":"Sphere.005",
			"primitives":[
				{
					"attributes":{
						"POSITION":42,
						"NORMAL":43,
						"TEXCOORD_0":44
					},
					"indices":32,
					"material":3
				}
			]
		}
	],
	"accessors":[
		{
			"bufferView":0,
			"componentType":5126,
			"count":272,
			"max":[
				1,
				1,
				0.9000000357627869
			],
			"min":[
				-1,
				0.18165087699890137,
				-1
			],
			"type":"VEC3"
		},
		{
			"bufferView":1,
			"componentType":5126,
			"count":272,
			"type":"VEC3"
		},
		{
			"bufferView":2,
			"componentType":5126,
			"count":272,
			"type":"VEC2"
		},
		{
			"bufferView":3,
			"componentType":5123,
			"count":684,
			"type":"SCALAR"
		},
		{
			"bufferView":4,
			"componentType":5126,
			"count":320,
			"max":[
				0.9999997019767761,
				0.005632124841213226,
				0.9999993443489075
			],
			"min":[
				-0.9999990463256836,
				-0.1572979837656021,
				-1
			],
			"type":"VEC3"
		},
		{
			"bufferView":5,
			"componentType":5126,
			"count":320,
			"type":"VEC3"
		},
		{
			"bufferView":6,
			"componentType":5126,
			"count":320,
			"type":"VEC2"
		},
		{
			"bufferView":7,
			"componentType":5123,
			"count":564,
			"type":"SCALAR"
		},
		{
			"bufferView":8,
			"componentType":5126,
			"count":640,
			"max":[
				0.9999997019767761,
				0.3826834559440613,
				0.9999993443489075
			],
			"min":[
				-0.9999990463256836,
				0,
				-1
			],
			"type":"VEC3"
		},
		{
			"bufferView":9,
			"componentType":5126,
			"count":640,
			"type":"VEC3"
		},
		{
			"bufferView":10,
			"componentType":5126,
			"count":640,
			"type":"VEC2"
		},
		{
			"bufferView":11,
			"componentType":5123,
			"count":960,
			"type":"SCALAR"
		},
		{
			"bufferView":12,
			"componentType":5126,
			"count":8,
			"max":[
				9.688854217529297,
				0,
				1
			],
			"min":[
				-9.688854217529297,
				0,
				-1
			],
			"type":"VEC3"
		},
		{
			"bufferView":13,
			"componentType":5126,
			"count":8,
			"type":"VEC3"
		},
		{
			"bufferView":14,
			"componentType":5126,
			"count":8,
			"type":"VEC2"
		},
		{
			"bufferView":15,
			"componentType":5123,
			"count":12,
			"type":"SCALAR"
		},
		{
			"bufferView":16,
			"componentType":5126,
			"count":272,
			"max":[
				1,
				1,
				0.9000000357627869
			],
			"min":[
				-1,
				0.18165087699890137,
				-1
			],
			"type":"VEC3"
		},
		{
			"bufferView":17,
			"componentType":5126,
			"count":272,
			"type":"VEC3"
		},
		{
			"bufferView":18,
			"componentType":5126,
			"count":272,
			"type":"VEC2"
		},
		{
			"bufferView":19,
			"componentType":5126,
			"count":272,
			"max":[
				1,
				1,
				0.9000000357627869
			],
			"min":[
				-1,
				0.18165087699890137,
				-1
			],
			"type":"VEC3"
		},
		{
			"bufferView":20,
			"componentType":5126,
			"count":272,
			"type":"VEC3"
		},
		{
			"bufferView":21,
			"componentType":5126,
			"count":272,
			"type":"VEC2"
		},
		{
			"bufferView":22,
			"componentType":5126,
			"count":272,
			"max":[
				1,
				1,
				0.9000000357627869
			],
			"min":[
				-1,
				0.18165087699890137,
				-1
			],
			"type":"VEC3"
		},
		{
			"bufferView":23,
			"componentType":5126,
			"count":272,
			"type":"VEC3"
		},
		{
			"bufferView":24,
			"componentType":5126,
			"count":272,
			"type":"VEC2"
		},
		{
			"bufferView":25,
			"componentType":5126,
			"count":4,
			"max":[
				1,
				0,
				1
			],
			"min":[
				-1,
				0,
				-1
			],
			"type":"VEC3"
		},
		{
			"bufferView":26,
			"componentType":5126,
			"count":4,
			"type":"VEC3"
		},
		{
			"bufferView":27,
			"componentType":5126,
			"count":4,
			"type":"VEC2"
		},
		{
			"bufferView":28,
			"componentType":5123,
			"count":6,
			"type":"SCALAR"
		},
		{
			"bufferView":29,
			"componentType":5126,
			"count":1984,
			"max":[
				0.9999997019767761,
				1,
				0.9999993443489075
			],
			"min":[
				-0.9999990463256836,
				-1,
				-1
			],
			"type":"VEC3"
		},
		{
			"bufferView":30,
			"componentType":5126,
			"count":1984,
			"type":"VEC3"
		},
		{
			"bufferView":31,
			"componentType":5126,
			"count":1984,
			"type":"VEC2"
		},
		{
			"bufferView":32,
			"componentType":5123,
			"count":2880,
			"type":"SCALAR"
		},
		{
			"bufferView":33,
			"componentType":5126,
			"count":1984,
			"max":[
				0.9999997019767761,
				1,
				0.9999993443489075
			],
			"min":[
				-0.9999990463256836,
				-1,
				-1
			],
			"type":"VEC3"
		},
		{
			"bufferView":34,
			"componentType":5126,
			"count":1984,
			"type":"VEC3"
		},
		{
			"bufferView":35,
			"componentType":5126,
			"count":1984,
			"type":"VEC2"
		},
		{
			"bufferView":36,
			"componentType":5126,
			"count":1984,
			"max":[
				0.9999997019767761,
				1,
				0.9999993443489075
			],
			"min":[
				-0.9999990463256836,
				-1,
				-1
			],
			"type":"VEC3"
		},
		{
			"bufferView":37,
			"componentType":5126,
			"count":1984,
			"type":"VEC3"
		},
		{
			"bufferView":38,
			"componentType":5126,
			"count":1984,
			"type":"VEC2"
		},
		{
			"bufferView":39,
			"componentType":5126,
			"count":1984,
			"max":[
				0.9999997019767761,
				1,
				0.9999993443489075
			],
			"min":[
				-0.9999990463256836,
				-1,
				-1
			],
			"type":"VEC3"
		},
		{
			"bufferView":40,
			"componentType":5126,
			"count":1984,
			"type":"VEC3"
		},
		{
			"bufferView":41,
			"componentType":5126,
			"count":1984,
			"type":"VEC2"
		},
		{
			"bufferView":42,
			"componentType":5126,
			"count":1984,
			"max":[
				0.9999997019767761,
				1,
				0.9999993443489075
			],
			"min":[
				-0.9999990463256836,
				-1,
				-1
			],
			"type":"VEC3"
		},
		{
			"bufferView":43,
			"componentType":5126,
			"count":1984,
			"type":"VEC3"
		},
		{
			"bufferView":44,
			"componentType":5126,
			"count":1984,
			"type":"VEC2"
		}
	],
	"bufferViews":[
		{
			"buffer":0,
			"byteLength":3264,
			"byteOffset":0,
			"target":34962
		},
		{
			"buffer":0,
			"byteLength":3264,
			"byteOffset":3264,
			"target":34962
		},
		{
			"buffer":0,
			"byteLength":2176,
			"byteOffset":6528,
			"target":34962
		},
		{
			"buffer":0,
			"byteLength":1368,
			"byteOffset":8704,
			"target":34963
		},
		{
			"buffer":0,
			"byteLength":3840,
			"byteOffset":10072,
			"target":34962
		},
		{
			"buffer":0,
			"byteLength":3840,
			"byteOffset":13912,
			"target":34962
		},
		{
			"buffer":0,
			"byteLength":2560,
			"byteOffset":17752,
			"target":34962
		},
		{
			"buffer":0,
			"byteLength":1128,
			"byteOffset":20312,
			"target":34963
		},
		{
			"buffer":0,
			"byteLength":7680,
			"byteOffset":21440,
			"target":34962
		},
		{
			"buffer":0,
			"byteLength":7680,
			"byteOffset":29120,
			"target":34962
		},
		{
			"buffer":0,
			"byteLength":5120,
			"byteOffset":36800,
			"target":34962
		},
		{
			"buffer":0,
			"byteLength":1920,
			"byteOffset":41920,
			"target":34963
		},
		{
			"buffer":0,
			"byteLength":96,
			"byteOffset":43840,
			"target":34962
		},
		{
			"buffer":0,
			"byteLength":96,
			"byteOffset":43936,
			"target":34962
		},
		{
			"buffer":0,
			"byteLength":64,
			"byteOffset":44032,
			"target":34962
		},
		{
			"buffer":0,
			"byteLength":24,
			"byteOffset":44096,
			"target":34963
		},
		{
			"buffer":0,
			"byteLength":3264,
			"byteOffset":44120,
			"target":34962
		},
		{
			"buffer":0,
			"byteLength":3264,
			"byteOffset":47384,
			"target":34962
		},
		{
			"buffer":0,
			"byteLength":2176,
			"byteOffset":50648,
			"target":34962
		},
		{
			"buffer":0,
			"byteLength":3264,
			"byteOffset":52824,
			"target":34962
		},
		{
			"buffer":0,
			"byteLength":3264,
			"byteOffset":56088,
			"target":34962
		},
		{
			"buffer":0,
			"byteLength":2176,
			"byteOffset":59352,
			"target":34962
		},
		{
			"buffer":0,
			"byteLength":3264,
			"byteOffset":61528,
			"target":34962
		},
		{
			"buffer":0,
			"byteLength":3264,
			"byteOffset":64792,
			"target":34962
		},
		{
			"buffer":0,
			"byteLength":2176,
			"byteOffset":68056,
			"target":34962
		},
		{
			"buffer":0,
			"byteLength":48,
			"byteOffset":70232,
			"target":34962
		},
		{
			"buffer":0,
			"byteLength":48,
			"byteOffset":70280,
			"target":34962
		},
		{
			"buffer":0,
			"byteLength":32,
			"byteOffset":70328,
			"target":34962
		},
		{
			"buffer":0,
			"byteLength":12,
			"byteOffset":70360,
			"target":34963
		},
		{
			"buffer":0,
			"byteLength":23808,
			"byteOffset":70372,
			"target":34962
		},
		{
			"buffer":0,
			"byteLength":23808,
			"byteOffset":94180,
			"target":34962
		},
		{
			"buffer":0,
			"byteLength":15872,
			"byteOffset":117988,
			"target":34962
		},
		{
			"buffer":0,
			"byteLength":5760,
			"byteOffset":133860,
			"target":34963
		},
		{
			"buffer":0,
			"byteLength":23808,
			"byteOffset":139620,
			"target":34962
		},
		{
			"buffer":0,
			"byteLength":23808,
			"byteOffset":163428,
			"target":34962
		},
		{
			"buffer":0,
			"byteLength":15872,
			"byteOffset":187236,
			"target":34962
		},
		{
			"buffer":0,
			"byteLength":23808,
			"byteOffset":203108,
			"target":34962
		},
		{
			"buffer":0,
			"byteLength":23808,
			"byteOffset":226916,
			"target":34962
		},
		{
			"buffer":0,
			"byteLength":15872,
			"byteOffset":250724,
			"target":34962
		},
		{
			"buffer":0,
			"byteLength":23808,
			"byteOffset":266596,
			"target":34962
		},
		{
			"buffer":0,
			"byteLength":23808,
			"byteOffset":290404,
			"target":34962
		},
		{
			"buffer":0,
			"byteLength":15872,
			"byteOffset":314212,
			"target":34962
		},
		{
			"buffer":0,
			"byteLength":23808,
			"byteOffset":330084,
			"target":34962
		},
		{
			"buffer":0,
			"byteLength":23808,
			"byteOffset":353892,
			"target":34962
		},
		{
			"buffer":0,
			"byteLength":15872,
			"byteOffset":377700,
			"target":34962
		}
	],
	"buffers":[
		{
			"byteLength":393572,
			"uri":"dome_3x3.bin"
		}
	]
}
