{
	"asset":{
		"generator":"Khronos glTF Blender I/O v5.0.21",
		"version":"2.0"
	},
	"scene":0,
	"scenes":[
		{
			"name":"Scene",
			"nodes":[
				0,
				1,
				2,
				3,
				4,
				5,
				6,
				7,
				8,
				9,
				10,
				11,
				12,
				13,
				14
			]
		}
	],
	"nodes":[
		{
			"mesh":0,
			"name":"Cylinder",
			"rotation":[
				0.7071068286895752,
				0,
				0,
				0.7071068286895752
			],
			"scale":[
				0.7686948776245117,
				0.5169352889060974,
				0.674848198890686
			],
			"translation":[
				0.03228026628494263,
				0.6019725203514099,
				4.493772506713867
			]
		},
		{
			"mesh":1,
			"name":"Sphere",
			"scale":[
				4.913431167602539,
				3.9870121479034424,
				4.913431167602539
			],
			"translation":[
				0.01560172438621521,
				0.5857013463973999,
				0.017482340335845947
			]
		},
		{
			"mesh":2,
			"name":"Cylinder.001",
			"rotation":[
				0.7071068286895752,
				0,
				0,
				0.7071068286895752
			],
			"scale":[
				0.7686948776245117,
				0.5169352889060974,
				0.674848198890686
			],
			"translation":[
				0.03228026628494263,
				0.6019725203514099,
				-5.103782653808594
			]
		},
		{
			"mesh":3,
			"name":"Cylinder.002",
			"rotation":[
				0.5,
				0.5,
				-0.5,
				0.5000000596046448
			],
			"scale":[
				0.7665433883666992,
				0.5169352889060974,
				0.674848198890686
			],
			"translation":[
				4.48252010345459,
				0.6019725203514099,
				-0.02354145050048828
			]
		},
		{
			"mesh":4,
			"name":"Cylinder.003",
			"rotation":[
				0.5,
				0.5,
				-0.5,
				0.5000000596046448
			],
			"scale":[
				0.7665433883666992,
				0.5169352889060974,
				0.674848198890686
			],
			"translation":[
				-5.109641075134277,
				0.6019725203514099,
				-0.02354145050048828
			]
		},
		{
			"mesh":5,
			"name":"Plane.002",
			"scale":[
				1.5370455980300903,
				1,
				0.521796703338623
			],
			"translation":[
				3.2098889350891113,
				0.09446254372596741,
				0
			]
		},
		{
			"mesh":6,
			"name":"Plane.003",
			"rotation":[
				0,
				-1,
				0,
				7.549789415861596e-08
			],
			"scale":[
				1.5370455980300903,
				1,
				0.521796703338623
			],
			"translation":[
				-3.158371925354004,
				0.09446254372596741,
				-0.0013716351240873337
			]
		},
		{
			"mesh":7,
			"name":"Plane.004",
			"rotation":[
				0,
				-0.7110965847969055,
				0,
				0.7030944228172302
			],
			"scale":[
				1.5370457172393799,
				1,
				0.5217967629432678
			],
			"translation":[
				0.044314250349998474,
				0.09446254372596741,
				3.384815216064453
			]
		},
		{
			"mesh":8,
			"name":"Plane.005",
			"rotation":[
				0,
				0.7030944228172302,
				0,
				0.7110965847969055
			],
			"scale":[
				1.5370457172393799,
				1,
				0.5217967629432678
			],
			"translation":[
				0.0016777142882347107,
				0.09446254372596741,
				-3.1580703258514404
			]
		},
		{
			"mesh":9,
			"name":"%P%Footprint",
			"scale":[
				5,
				5,
				5
			]
		},
		{
			"mesh":10,
			"name":"%P%AnchorIn.003",
			"scale":[
				0.1305997669696808,
				0.1305997669696808,
				0.1305997669696808
			],
			"translation":[
				4.9929399490356445,
				0.013297781348228455,
				0
			]
		},
		{
			"mesh":11,
			"name":"%P%AnchorIn",
			"scale":[
				0.1305997669696808,
				0.1305997669696808,
				0.1305997669696808
			],
			"translation":[
				-0.002413414418697357,
				0.013297781348228455,
				5.005390167236328
			]
		},
		{
			"mesh":12,
			"name":"%P%AnchorIn.002",
			"scale":[
				0.1305997669696808,
				0.1305997669696808,
				0.1305997669696808
			],
			"translation":[
				0.0012903809547424316,
				0.013297781348228455,
				-5.010719299316406
			]
		},
		{
			"mesh":13,
			"name":"%P%AnchorIn.001",
			"scale":[
				0.1305997669696808,
				0.1305997669696808,
				0.1305997669696808
			],
			"translation":[
				-5.0083818435668945,
				0.013297781348228455,
				0
			]
		},
		{
			"mesh":14,
			"name":"%P%Center",
			"scale":[
				0.19623501598834991,
				0.19623501598834991,
				0.19623501598834991
			],
			"translation":[
				0.00835662242025137,
				0.013297779485583305,
				0.037825167179107666
			]
		}
	],
	"materials":[
		{
			"doubleSided":true,
			"name":"Material.001",
			"pbrMetallicRoughness":{
				"baseColorFactor":[
					0.023114344105124474,
					0.002103704260662198,
					0,
					1
				],
				"metallicFactor":0,
				"roughnessFactor":0.5
			}
		},
		{
			"doubleSided":true,
			"name":"Material.002",
			"pbrMetallicRoughness":{
				"baseColorFactor":[
					0.23567357659339905,
					0.3743426501750946,
					0.36440348625183105,
					1
				],
				"metallicFactor":0,
				"roughnessFactor":0.5
			}
		},
		{
			"doubleSided":true,
			"name":"In Ground",
			"pbrMetallicRoughness":{
				"baseColorFactor":[
					0.6847777962684631,
					0.9456278085708618,
					1,
					1
				],
				"metallicFactor":0,
				"roughnessFactor":0.5
			}
		},
		{
			"doubleSided":true,
			"name":"%P%",
			"pbrMetallicRoughness":{
				"baseColorFactor":[
					0.8000156879425049,
					0.017849527299404144,
					0.659480094909668,
					1
				],
				"metallicFactor":0,
				"roughnessFactor":0.5
			}
		}
	],
	"meshes":[
		{
			"name":"Cylinder",
			"primitives":[
				{
					"attributes":{
						"POSITION":0,
						"NORMAL":1,
						"TEXCOORD_0":2
					},
					"indices":3,
					"material":0
				}
			]
		},
		{
			"name":"Sphere",
			"primitives":[
				{
					"attributes":{
						"POSITION":4,
						"NORMAL":5,
						"TEXCOORD_0":6
					},
					"indices":7,
					"material":0
				},
				{
					"attributes":{
						"POSITION":8,
						"NORMAL":9,
						"TEXCOORD_0":10
					},
					"indices":11,
					"material":1
				}
			]
		},
		{
			"name":"Cylinder.001",
			"primitives":[
				{
					"attributes":{
						"POSITION":12,
						"NORMAL":13,
						"TEXCOORD_0":14
					},
					"indices":3,
					"material":0
				}
			]
		},
		{
			"name":"Cylinder.002",
			"primitives":[
				{
					"attributes":{
						"POSITION":15,
						"NORMAL":16,
						"TEXCOORD_0":17
					},
					"indices":3,
					"material":0
				}
			]
		},
		{
			"name":"Cylinder.003",
			"primitives":[
				{
					"attributes":{
						"POSITION":18,
						"NORMAL":19,
						"TEXCOORD_0":20
					},
					"indices":3,
					"material":0
				}
			]
		},
		{
			"name":"Plane.003",
			"primitives":[
				{
					"attributes":{
						"POSITION":21,
						"NORMAL":22,
						"TEXCOORD_0":23
					},
					"indices":24,
					"material":2
				}
			]
		},
		{
			"name":"Plane.005",
			"primitives":[
				{
					"attributes":{
						"POSITION":25,
						"NORMAL":26,
						"TEXCOORD_0":27
					},
					"indices":24,
					"material":2
				}
			]
		},
		{
			"name":"Plane.006",
			"primitives":[
				{
					"attributes":{
						"POSITION":28,
						"NORMAL":29,
						"TEXCOORD_0":30
					},
					"indices":24,
					"material":2
				}
			]
		},
		{
			"name":"Plane.007",
			"primitives":[
				{
					"attributes":{
						"POSITION":31,
						"NORMAL":32,
						"TEXCOORD_0":33
					},
					"indices":24,
					"material":2
				}
			]
		},
		{
			"name":"Plane",
			"primitives":[
				{
					"attributes":{
						"POSITION":34,
						"NORMAL":35,
						"TEXCOORD_0":36
					},
					"indices":37,
					"material":3
				}
			]
		},
		{
			"name":"Sphere.001",
			"primitives":[
				{
					"attributes":{
						"POSITION":38,
						"NORMAL":39,
						"TEXCOORD_0":40
					},
					"indices":41,
					"material":3
				}
			]
		},
		{
			"name":"Sphere.002",
			"primitives":[
				{
					"attributes":{
						"POSITION":42,
						"NORMAL":43,
						"TEXCOORD_0":44
					},
					"indices":41,
					"material":3
				}
			]
		},
		{
			"name":"Sphere.003",
			"primitives":[
				{
					"attributes":{
						"POSITION":45,
						"NORMAL":46,
						"TEXCOORD_0":47
					},
					"indices":41,
					"material":3
				}
			]
		},
		{
			"name":"Sphere.004",
			"primitives":[
				{
					"attributes":{
						"POSITION":48,
						"NORMAL":49,
						"TEXCOORD_0":50
					},
					"indices":41,
					"material":3
				}
			]
		},
		{
			"name":"Sphere.005",
			"primitives":[
				{
					"attributes":{
						"POSITION":51,
						"NORMAL":52,
						"TEXCOORD_0":53
					},
					"indices":41,
					"material":3
				}
			]
		}
	],
	"accessors":[
		{
			"bufferView":0,
			"componentType":5126,
			"count":272,
			"max":[
				1,
				1,
				0.9000000357627869
			],
			"min":[
				-1,
				0.18165087699890137,
				-1
			],
			"type":"VEC3"
		},
		{
			"bufferView":1,
			"componentType":5126,
			"count":272,
			"type":"VEC3"
		},
		{
			"bufferView":2,
			"componentType":5126,
			"count":272,
			"type":"VEC2"
		},
		{
			"bufferView":3,
			"componentType":5123,
			"count":684,
			"type":"SCALAR"
		},
		{
			"bufferView":4,
			"componentType":5126,
			"count":320,
			"max":[
				0.9999997019767761,
				0.005632124841213226,
				0.9999993443489075
			],
			"min":[
				-0.9999990463256836,
				-0.1572979837656021,
				-1
			],
			"type":"VEC3"
		},
		{
			"bufferView":5,
			"componentType":5126,
			"count":320,
			"type":"VEC3"
		},
		{
			"bufferView":6,
			"componentType":5126,
			"count":320,
			"type":"VEC2"
		},
		{
			"bufferView":7,
			"componentType":5123,
			"count":564,
			"type":"SCALAR"
		},
		{
			"bufferView":8,
			"componentType":5126,
			"count":640,
			"max":[
				0.9999997019767761,
				0.3826834559440613,
				0.9999993443489075
			],
			"min":[
				-0.9999990463256836,
				0,
				-1
			],
			"type":"VEC3"
		},
		{
			"bufferView":9,
			"componentType":5126,
			"count":640,
			"type":"VEC3"
		},
		{
			"bufferView":10,
			"componentType":5126,
			"count":640,
			"type":"VEC2"
		},
		{
			"bufferView":11,
			"componentType":5123,
			"count":960,
			"type":"SCALAR"
		},
		{
			"bufferView":12,
			"componentType":5126,
			"count":272,
			"max":[
				1,
				1,
				0.9000000357627869
			],
			"min":[
				-1,
				0.18165087699890137,
				-1
			],
			"type":"VEC3"
		},
		{
			"bufferView":13,
			"componentType":5126,
			"count":272,
			"type":"VEC3"
		},
		{
			"bufferView":14,
			"componentType":5126,
			"count":272,
			"type":"VEC2"
		},
		{
			"bufferView":15,
			"componentType":5126,
			"count":272,
			"max":[
				1,
				1,
				0.9000000357627869
			],
			"min":[
				-1,
				0.18165087699890137,
				-1
			],
			"type":"VEC3"
		},
		{
			"bufferView":16,
			"componentType":5126,
			"count":272,
			"type":"VEC3"
		},
		{
			"bufferView":17,
			"componentType":5126,
			"count":272,
			"type":"VEC2"
		},
		{
			"bufferView":18,
			"componentType":5126,
			"count":272,
			"max":[
				1,
				1,
				0.9000000357627869
			],
			"min":[
				-1,
				0.18165087699890137,
				-1
			],
			"type":"VEC3"
		},
		{
			"bufferView":19,
			"componentType":5126,
			"count":272,
			"type":"VEC3"
		},
		{
			"bufferView":20,
			"componentType":5126,
			"count":272,
			"type":"VEC2"
		},
		{
			"bufferView":21,
			"componentType":5126,
			"count":8,
			"max":[
				1,
				0,
				4.229683876037598
			],
			"min":[
				-1,
				0,
				-4.192755699157715
			],
			"type":"VEC3"
		},
		{
			"bufferView":22,
			"componentType":5126,
			"count":8,
			"type":"VEC3"
		},
		{
			"bufferView":23,
			"componentType":5126,
			"count":8,
			"type":"VEC2"
		},
		{
			"bufferView":24,
			"componentType":5123,
			"count":12,
			"type":"SCALAR"
		},
		{
			"bufferView":25,
			"componentType":5126,
			"count":8,
			"max":[
				1,
				0,
				4.229683876037598
			],
			"min":[
				-1,
				0,
				-4.192755699157715
			],
			"type":"VEC3"
		},
		{
			"bufferView":26,
			"componentType":5126,
			"count":8,
			"type":"VEC3"
		},
		{
			"bufferView":27,
			"componentType":5126,
			"count":8,
			"type":"VEC2"
		},
		{
			"bufferView":28,
			"componentType":5126,
			"count":8,
			"max":[
				1,
				0,
				4.229683876037598
			],
			"min":[
				-1,
				0,
				-4.192755699157715
			],
			"type":"VEC3"
		},
		{
			"bufferView":29,
			"componentType":5126,
			"count":8,
			"type":"VEC3"
		},
		{
			"bufferView":30,
			"componentType":5126,
			"count":8,
			"type":"VEC2"
		},
		{
			"bufferView":31,
			"componentType":5126,
			"count":8,
			"max":[
				1,
				0,
				4.229683876037598
			],
			"min":[
				-1,
				0,
				-4.192755699157715
			],
			"type":"VEC3"
		},
		{
			"bufferView":32,
			"componentType":5126,
			"count":8,
			"type":"VEC3"
		},
		{
			"bufferView":33,
			"componentType":5126,
			"count":8,
			"type":"VEC2"
		},
		{
			"bufferView":34,
			"componentType":5126,
			"count":4,
			"max":[
				1,
				0,
				1
			],
			"min":[
				-1,
				0,
				-1
			],
			"type":"VEC3"
		},
		{
			"bufferView":35,
			"componentType":5126,
			"count":4,
			"type":"VEC3"
		},
		{
			"bufferView":36,
			"componentType":5126,
			"count":4,
			"type":"VEC2"
		},
		{
			"bufferView":37,
			"componentType":5123,
			"count":6,
			"type":"SCALAR"
		},
		{
			"bufferView":38,
			"componentType":5126,
			"count":1984,
			"max":[
				0.9999997019767761,
				1,
				0.9999993443489075
			],
			"min":[
				-0.9999990463256836,
				-1,
				-1
			],
			"type":"VEC3"
		},
		{
			"bufferView":39,
			"componentType":5126,
			"count":1984,
			"type":"VEC3"
		},
		{
			"bufferView":40,
			"componentType":5126,
			"count":1984,
			"type":"VEC2"
		},
		{
			"bufferView":41,
			"componentType":5123,
			"count":2880,
			"type":"SCALAR"
		},
		{
			"bufferView":42,
			"componentType":5126,
			"count":1984,
			"max":[
				0.9999997019767761,
				1,
				0.9999993443489075
			],
			"min":[
				-0.9999990463256836,
				-1,
				-1
			],
			"type":"VEC3"
		},
		{
			"bufferView":43,
			"componentType":5126,
			"count":1984,
			"type":"VEC3"
		},
		{
			"bufferView":44,
			"componentType":5126,
			"count":1984,
			"type":"VEC2"
		},
		{
			"bufferView":45,
			"componentType":5126,
			"count":1984,
			"max":[
				0.9999997019767761,
				1,
				0.9999993443489075
			],
			"min":[
				-0.9999990463256836,
				-1,
				-1
			],
			"type":"VEC3"
		},
		{
			"bufferView":46,
			"componentType":5126,
			"count":1984,
			"type":"VEC3"
		},
		{
			"bufferView":47,
			"componentType":5126,
			"count":1984,
			"type":"VEC2"
		},
		{
			"bufferView":48,
			"componentType":5126,
			"count":1984,
			"max":[
				0.9999997019767761,
				1,
				0.9999993443489075
			],
			"min":[
				-0.9999990463256836,
				-1,
				-1
			],
			"type":"VEC3"
		},
		{
			"bufferView":49,
			"componentType":5126,
			"count":1984,
			"type":"VEC3"
		},
		{
			"bufferView":50,
			"componentType":5126,
			"count":1984,
			"type":"VEC2"
		},
		{
			"bufferView":51,
			"componentType":5126,
			"count":1984,
			"max":[
				0.9999997019767761,
				1,
				0.9999993443489075
			],
			"min":[
				-0.9999990463256836,
				-1,
				-1
			],
			"type":"VEC3"
		},
		{
			"bufferView":52,
			"componentType":5126,
			"count":1984,
			"type":"VEC3"
		},
		{
			"bufferView":53,
			"componentType":5126,
			"count":1984,
			"type":"VEC2"
		}
	],
	"bufferViews":[
		{
			"buffer":0,
			"byteLength":3264,
			"byteOffset":0,
			"target":34962
		},
		{
			"buffer":0,
			"byteLength":3264,
			"byteOffset":3264,
			"target":34962
		},
		{
			"buffer":0,
			"byteLength":2176,
			"byteOffset":6528,
			"target":34962
		},
		{
			"buffer":0,
			"byteLength":1368,
			"byteOffset":8704,
			"target":34963
		},
		{
			"buffer":0,
			"byteLength":3840,
			"byteOffset":10072,
			"target":34962
		},
		{
			"buffer":0,
			"byteLength":3840,
			"byteOffset":13912,
			"target":34962
		},
		{
			"buffer":0,
			"byteLength":2560,
			"byteOffset":17752,
			"target":34962
		},
		{
			"buffer":0,
			"byteLength":1128,
			"byteOffset":20312,
			"target":34963
		},
		{
			"buffer":0,
			"byteLength":7680,
			"byteOffset":21440,
			"target":34962
		},
		{
			"buffer":0,
			"byteLength":7680,
			"byteOffset":29120,
			"target":34962
		},
		{
			"buffer":0,
			"byteLength":5120,
			"byteOffset":36800,
			"target":34962
		},
		{
			"buffer":0,
			"byteLength":1920,
			"byteOffset":41920,
			"target":34963
		},
		{
			"buffer":0,
			"byteLength":3264,
			"byteOffset":43840,
			"target":34962
		},
		{
			"buffer":0,
			"byteLength":3264,
			"byteOffset":47104,
			"target":34962
		},
		{
			"buffer":0,
			"byteLength":2176,
			"byteOffset":50368,
			"target":34962
		},
		{
			"buffer":0,
			"byteLength":3264,
			"byteOffset":52544,
			"target":34962
		},
		{
			"buffer":0,
			"byteLength":3264,
			"byteOffset":55808,
			"target":34962
		},
		{
			"buffer":0,
			"byteLength":2176,
			"byteOffset":59072,
			"target":34962
		},
		{
			"buffer":0,
			"byteLength":3264,
			"byteOffset":61248,
			"target":34962
		},
		{
			"buffer":0,
			"byteLength":3264,
			"byteOffset":64512,
			"target":34962
		},
		{
			"buffer":0,
			"byteLength":2176,
			"byteOffset":67776,
			"target":34962
		},
		{
			"buffer":0,
			"byteLength":96,
			"byteOffset":69952,
			"target":34962
		},
		{
			"buffer":0,
			"byteLength":96,
			"byteOffset":70048,
			"target":34962
		},
		{
			"buffer":0,
			"byteLength":64,
			"byteOffset":70144,
			"target":34962
		},
		{
			"buffer":0,
			"byteLength":24,
			"byteOffset":70208,
			"target":34963
		},
		{
			"buffer":0,
			"byteLength":96,
			"byteOffset":70232,
			"target":34962
		},
		{
			"buffer":0,
			"byteLength":96,
			"byteOffset":70328,
			"target":34962
		},
		{
			"buffer":0,
			"byteLength":64,
			"byteOffset":70424,
			"target":34962
		},
		{
			"buffer":0,
			"byteLength":96,
			"byteOffset":70488,
			"target":34962
		},
		{
			"buffer":0,
			"byteLength":96,
			"byteOffset":70584,
			"target":34962
		},
		{
			"buffer":0,
			"byteLength":64,
			"byteOffset":70680,
			"target":34962
		},
		{
			"buffer":0,
			"byteLength":96,
			"byteOffset":70744,
			"target":34962
		},
		{
			"buffer":0,
			"byteLength":96,
			"byteOffset":70840,
			"target":34962
		},
		{
			"buffer":0,
			"byteLength":64,
			"byteOffset":70936,
			"target":34962
		},
		{
			"buffer":0,
			"byteLength":48,
			"byteOffset":71000,
			"target":34962
		},
		{
			"buffer":0,
			"byteLength":48,
			"byteOffset":71048,
			"target":34962
		},
		{
			"buffer":0,
			"byteLength":32,
			"byteOffset":71096,
			"target":34962
		},
		{
			"buffer":0,
			"byteLength":12,
			"byteOffset":71128,
			"target":34963
		},
		{
			"buffer":0,
			"byteLength":23808,
			"byteOffset":71140,
			"target":34962
		},
		{
			"buffer":0,
			"byteLength":23808,
			"byteOffset":94948,
			"target":34962
		},
		{
			"buffer":0,
			"byteLength":15872,
			"byteOffset":118756,
			"target":34962
		},
		{
			"buffer":0,
			"byteLength":5760,
			"byteOffset":134628,
			"target":34963
		},
		{
			"buffer":0,
			"byteLength":23808,
			"byteOffset":140388,
			"target":34962
		},
		{
			"buffer":0,
			"byteLength":23808,
			"byteOffset":164196,
			"target":34962
		},
		{
			"buffer":0,
			"byteLength":15872,
			"byteOffset":188004,
			"target":34962
		},
		{
			"buffer":0,
			"byteLength":23808,
			"byteOffset":203876,
			"target":34962
		},
		{
			"buffer":0,
			"byteLength":23808,
			"byteOffset":227684,
			"target":34962
		},
		{
			"buffer":0,
			"byteLength":15872,
			"byteOffset":251492,
			"target":34962
		},
		{
			"buffer":0,
			"byteLength":23808,
			"byteOffset":267364,
			"target":34962
		},
		{
			"buffer":0,
			"byteLength":23808,
			"byteOffset":291172,
			"target":34962
		},
		{
			"buffer":0,
			"byteLength":15872,
			"byteOffset":314980,
			"target":34962
		},
		{
			"buffer":0,
			"byteLength":23808,
			"byteOffset":330852,
			"target":34962
		},
		{
			"buffer":0,
			"byteLength":23808,
			"byteOffset":354660,
			"target":34962
		},
		{
			"buffer":0,
			"byteLength":15872,
			"byteOffset":378468,
			"target":34962
		}
	],
	"buffers":[
		{
			"byteLength":394340,
			"uri":"dome_5x5.bin"
		}
	]
}
