# Blender 5.0.1
# www.blender.org
mtllib house_demo1.mtl
o Cube.001
v 2.137662 0.027237 5.434994
v 2.137662 5.243881 5.434994
v 2.137662 0.027237 -5.723669
v 2.137662 5.243881 -5.723669
v 8.658467 0.027237 5.434994
v 8.658467 5.243881 5.434994
v 8.658467 0.027237 -5.723669
v 8.658467 5.243881 -5.723669
v 2.137662 4.429846 5.434994
v 2.137662 4.429846 -5.723669
v 8.658467 4.429846 -5.723669
v 8.658467 4.429846 5.434994
v 1.454194 4.429846 6.604572
v 1.454194 5.243881 6.604572
v 1.454194 5.243881 -6.893248
v 9.341936 5.243881 -6.893248
v 9.341936 5.243881 6.604572
v 1.454194 4.429846 -6.893248
v 9.341936 4.429846 -6.893248
v 9.341936 4.429846 6.604572
v -7.800546 0.010914 7.637019
v -7.929678 7.821892 7.766151
v -7.800546 0.010914 -2.362981
v -7.929678 7.821892 -2.492113
v 2.199454 0.010914 7.637019
v 2.328587 7.821892 7.766151
v 2.199454 0.010914 -2.362981
v 2.328587 7.821892 -2.492113
v -7.800546 7.299645 7.637019
v -7.800546 7.299645 -2.362981
v 2.199454 7.299645 -2.362981
v 2.199454 7.299645 7.637019
v -8.175478 7.299645 8.011951
v -8.175478 8.010914 8.011951
v -8.175478 8.010914 -2.737913
v 2.574387 8.010914 -2.737913
v 2.574387 8.010914 8.011951
v -8.175478 7.299645 -2.737913
v 2.574387 7.299645 -2.737913
v 2.574387 7.299645 8.011951
v -7.774234 7.463567 7.610708
v -7.774234 7.463567 -2.336670
v 2.173143 7.463567 -2.336670
v 2.173143 7.463567 7.610708
v -7.800546 5.371051 -2.362981
v 2.199454 5.371051 -2.362981
v 2.199454 5.371051 7.637019
v -7.800546 5.371051 7.637019
v -0.887039 5.371051 7.637019
v -4.144046 5.371051 7.637019
v -4.132957 4.485240 7.637019
v -0.846020 4.462966 7.637019
v -4.135615 5.903914 7.637019
v -0.913409 6.021874 7.637019
v -7.428630 5.371051 7.493268
v -7.428630 5.371051 -1.787974
v 1.852612 5.371051 -1.787974
v 1.852612 5.371051 7.493268
v -4.034945 5.371051 7.493268
v -1.012038 5.371051 7.493268
v -4.024652 4.485240 7.493268
v -0.973967 4.462966 7.493268
v -4.027120 5.903914 7.493268
v -1.036512 6.021874 7.493268
v -3.849645 3.028396 7.637019
v -3.960361 0.928457 7.637019
v -1.463016 0.938405 7.637019
v -1.438715 3.211324 7.637019
v -7.522757 5.371050 6.805018
v -7.522757 5.371050 -2.476224
v 1.758485 5.371050 -2.476224
v 1.758485 5.371050 6.805018
v -4.129071 5.371050 6.805018
v -1.106165 5.371050 6.805018
v -4.118779 4.485240 6.805018
v -1.068094 4.462966 6.805018
v -4.121246 5.903914 6.805018
v -1.130639 6.021874 6.805018
v -3.943771 3.028396 6.948770
v -4.054488 0.928457 6.948770
v -1.557143 0.938405 6.948770
v -1.532842 3.211323 6.948770
v -7.800546 0.010914 0.439510
v -7.800546 0.010914 3.171942
v -7.800546 3.059740 0.487039
v -7.800546 3.061063 3.182397
v -7.007823 0.020900 0.604684
v -7.007823 0.020900 3.010236
v -7.007823 2.704996 0.646527
v -7.007823 2.706160 3.019440
v -10.000000 0.000000 10.000000
v 10.000000 0.000000 10.000000
v -10.000000 0.000000 -10.000000
v 10.000000 0.000000 -10.000000
v -10.000000 0.000000 0.367560
v -10.000000 0.000000 3.322390
v -7.803669 0.000000 0.363125
v -7.732329 0.000000 3.376330
vn -0.0000 1.0000 -0.0000
vn -0.0000 -1.0000 -0.0000
vn -0.0000 -0.0000 1.0000
vn 1.0000 -0.0000 -0.0000
vn -0.0000 -0.0000 -1.0000
vn -1.0000 -0.0000 -0.0000
vn -0.6096 0.7927 -0.0000
vn -0.0000 0.7927 0.6096
vn 0.9174 0.3980 -0.0000
vn 0.6096 0.7927 -0.0000
vn -0.0000 0.7927 -0.6096
vn -0.0000 0.3980 -0.9174
vn -0.0000 0.3980 0.9174
vn -0.9174 0.3980 -0.0000
vn 0.7981 -0.0117 0.6024
vn -0.0040 1.0000 0.0005
vn 0.7965 0.0100 0.6045
vn -0.7543 -0.0306 0.6559
vn 0.0073 1.0000 0.0055
vn 0.0366 -0.9988 -0.0313
vn -0.7466 -0.0337 0.6645
vn 0.0073 1.0000 -0.0010
vn -0.9899 -0.0415 0.1354
vn -0.9907 0.0106 0.1355
vn 0.9907 -0.0145 -0.1355
vn 0.0757 -0.9971 -0.0103
vn -0.9901 -0.0372 0.1354
vn 0.0394 -0.9992 -0.0054
vn 0.9907 0.0115 -0.1355
vn 0.9894 -0.0522 -0.1353
vn 0.1999 -0.0034 0.9798
vn 0.4085 0.9127 -0.0004
vn 0.2038 0.0153 -0.9789
vn 0.7965 -0.0126 0.6045
vn 0.7987 0.0093 0.6017
vn -0.7592 -0.0286 0.6502
vn 0.0068 1.0000 -0.0060
vn 0.0394 -0.9988 0.0297
vn -0.7542 -0.0316 0.6558
vt 0.875000 0.500000
vt 0.875000 0.750000
vt 0.500000 0.500000
vt 0.500000 0.750000
vt 0.625000 0.750000
vt 0.625000 0.500000
vt 0.500000 0.000000
vt 0.500000 0.250000
vt 0.375000 0.500000
vt 0.125000 0.750000
vt 0.125000 0.500000
vt 0.375000 1.000000
vt 0.375000 0.750000
vt 0.375000 0.250000
vt 0.375000 0.000000
vt 0.625000 0.000000
vt 0.625000 0.250000
vt 0.500000 1.000000
vt 0.125000 0.638373
vt 0.454769 0.908377
vt 0.458591 0.827822
vt 0.437500 0.750000
vt 0.437500 0.500000
vt 0.437500 0.250000
vt 0.437500 0.000000
vt 0.410565 0.111366
vt 0.385815 0.841562
vt 0.437500 0.908587
vt 0.385699 0.903995
vt 0.427171 0.908310
vt 0.437500 1.000000
vt 0.437500 0.827162
vt 0.426912 0.826137
vt 0.410184 0.901228
vt 0.412317 0.840954
vt 0.375000 0.111627
vt 0.410550 0.178750
vt 0.375000 0.179938
vt 1.000000 0.000000
vt 0.109817 0.481844
vt 0.113384 0.331183
vt 0.000000 0.333881
vt 0.000000 0.481622
vt 0.625000 1.000000
vt 0.125000 0.570062
vt 0.000000 0.000000
vt 1.000000 1.000000
vt 0.000000 1.000000
s 0
usemtl Roof
f 4/1/1 14/2/1 2/2/1
f 6/5/1 16/6/1 8/6/1
f 14/16/6 18/8/6 13/7/6
f 15/17/5 19/3/5 18/8/5
f 16/6/4 20/4/4 19/3/4
f 17/5/3 13/18/3 20/4/3
f 6/5/1 14/2/1 17/5/1
f 8/6/1 15/1/1 4/1/1
f 26/5/7 36/6/7 28/6/7
f 28/6/8 35/1/8 24/1/8
f 22/2/9 42/1/9 24/1/9
f 34/16/6 38/8/6 33/7/6
f 35/17/5 39/3/5 38/8/5
f 36/6/4 40/4/4 39/3/4
f 37/5/3 33/18/3 40/4/3
f 24/1/10 34/2/10 22/2/10
f 22/2/11 37/5/11 26/5/11
f 26/5/12 41/2/12 22/2/12
f 24/1/13 43/6/13 28/6/13
f 28/6/14 44/5/14 26/5/14
f 4/1/1 15/1/1 14/2/1
f 6/5/1 17/5/1 16/6/1
f 14/16/6 15/17/6 18/8/6
f 15/17/5 16/6/5 19/3/5
f 16/6/4 17/5/4 20/4/4
f 17/5/3 14/44/3 13/18/3
f 6/5/1 2/2/1 14/2/1
f 8/6/1 16/6/1 15/1/1
f 26/5/7 37/5/7 36/6/7
f 28/6/8 36/6/8 35/1/8
f 22/2/9 41/2/9 42/1/9
f 34/16/6 35/17/6 38/8/6
f 35/17/5 36/6/5 39/3/5
f 36/6/4 37/5/4 40/4/4
f 37/5/3 34/44/3 33/18/3
f 24/1/10 35/1/10 34/2/10
f 22/2/11 34/2/11 37/5/11
f 26/5/12 44/5/12 41/2/12
f 24/1/13 42/1/13 43/6/13
f 28/6/14 43/6/14 44/5/14
usemtl Walls
f 11/3/2 20/4/2 12/4/2
f 9/7/2 18/8/2 10/8/2
f 7/9/2 1/10/2 3/11/2
f 12/4/3 1/12/3 5/13/3
f 11/3/4 5/13/4 7/9/4
f 10/8/5 7/9/5 3/14/5
f 9/7/6 3/14/6 1/15/6
f 11/3/2 18/8/2 19/3/2
f 12/4/2 13/18/2 9/18/2
f 29/7/2 38/8/2 30/8/2
f 32/4/2 33/18/2 29/18/2
f 27/9/2 21/10/2 84/19/2
f 32/4/3 53/20/3 54/21/3
f 31/3/4 47/22/4 46/23/4
f 30/8/5 46/23/5 45/24/5
f 29/7/6 45/24/6 48/25/6
f 31/3/2 40/4/2 32/4/2
f 30/8/2 39/3/2 31/3/2
f 48/25/6 45/24/6 86/26/6
f 45/24/5 27/9/5 23/14/5
f 46/23/4 25/13/4 27/9/4
f 25/13/3 67/27/3 21/12/3
f 56/24/2 69/25/2 70/24/2
f 53/20/15 59/28/15 63/20/15
f 47/22/1 57/23/1 58/22/1
f 66/29/16 81/27/16 80/29/16
f 51/30/17 59/28/17 50/28/17
f 50/28/2 55/31/2 59/28/2
f 54/21/18 60/32/18 49/32/18
f 48/25/1 56/24/1 45/24/1
f 51/30/19 62/33/19 61/30/19
f 49/32/2 58/22/2 47/22/2
f 53/20/20 64/21/20 54/21/20
f 46/23/1 56/24/1 57/23/1
f 49/32/21 62/33/21 52/33/21
f 65/34/3 52/33/3 51/30/3
f 61/30/22 76/33/22 75/30/22
f 60/32/23 76/33/23 62/33/23
f 67/27/24 82/35/24 81/27/24
f 56/24/2 71/23/2 57/23/2
f 59/28/25 77/20/25 63/20/25
f 65/34/26 82/35/26 68/35/26
f 57/23/1 72/22/1 58/22/1
f 64/21/27 74/32/27 60/32/27
f 55/31/2 73/28/2 59/28/2
f 63/20/28 78/21/28 64/21/28
f 60/32/2 72/22/2 58/22/2
f 59/28/29 75/30/29 73/28/29
f 66/29/30 79/34/30 65/34/30
f 84/36/31 90/26/31 86/26/31
f 85/37/32 90/26/32 89/37/32
f 83/38/33 89/37/33 87/38/33
f 11/3/2 19/3/2 20/4/2
f 9/7/2 13/7/2 18/8/2
f 7/9/2 5/13/2 1/10/2
f 12/4/3 9/18/3 1/12/3
f 11/3/4 12/4/4 5/13/4
f 10/8/5 11/3/5 7/9/5
f 9/7/6 10/8/6 3/14/6
f 11/3/2 10/8/2 18/8/2
f 12/4/2 20/4/2 13/18/2
f 29/7/2 33/7/2 38/8/2
f 32/4/2 40/4/2 33/18/2
f 83/45/2 23/11/2 27/9/2
f 27/9/2 25/13/2 21/10/2
f 84/19/2 83/45/2 27/9/2
f 49/32/3 47/22/3 32/4/3
f 32/4/3 29/18/3 48/31/3
f 48/31/3 50/28/3 53/20/3
f 54/21/3 49/32/3 32/4/3
f 32/4/3 48/31/3 53/20/3
f 31/3/4 32/4/4 47/22/4
f 30/8/5 31/3/5 46/23/5
f 29/7/6 30/8/6 45/24/6
f 31/3/2 39/3/2 40/4/2
f 30/8/2 38/8/2 39/3/2
f 84/36/6 21/15/6 48/25/6
f 45/24/6 23/14/6 83/38/6
f 45/24/6 83/38/6 85/37/6
f 86/26/6 84/36/6 48/25/6
f 45/24/6 85/37/6 86/26/6
f 45/24/5 46/23/5 27/9/5
f 46/23/4 47/22/4 25/13/4
f 25/13/3 47/22/3 68/35/3
f 67/27/3 66/29/3 21/12/3
f 25/13/3 68/35/3 67/27/3
f 56/24/2 55/25/2 69/25/2
f 53/20/34 50/28/34 59/28/34
f 47/22/1 46/23/1 57/23/1
f 66/29/16 67/27/16 81/27/16
f 51/30/35 61/30/35 59/28/35
f 50/28/2 48/31/2 55/31/2
f 54/21/36 64/21/36 60/32/36
f 48/25/1 55/25/1 56/24/1
f 51/30/37 52/33/37 62/33/37
f 49/32/2 60/32/2 58/22/2
f 53/20/38 63/20/38 64/21/38
f 46/23/1 45/24/1 56/24/1
f 49/32/39 60/32/39 62/33/39
f 48/31/3 21/12/3 66/29/3
f 65/34/3 68/35/3 47/22/3
f 48/31/3 66/29/3 65/34/3
f 51/30/3 50/28/3 48/31/3
f 47/22/3 49/32/3 52/33/3
f 51/30/3 48/31/3 65/34/3
f 65/34/3 47/22/3 52/33/3
f 61/30/22 62/33/22 76/33/22
f 60/32/23 74/32/23 76/33/23
f 67/27/24 68/35/24 82/35/24
f 56/24/2 70/24/2 71/23/2
f 59/28/25 73/28/25 77/20/25
f 65/34/26 79/34/26 82/35/26
f 57/23/1 71/23/1 72/22/1
f 64/21/27 78/21/27 74/32/27
f 55/31/2 69/31/2 73/28/2
f 63/20/28 77/20/28 78/21/28
f 60/32/2 74/32/2 72/22/2
f 59/28/29 61/30/29 75/30/29
f 66/29/30 80/29/30 79/34/30
f 84/36/31 88/36/31 90/26/31
f 85/37/32 86/26/32 90/26/32
f 83/38/33 85/37/33 89/37/33
usemtl Window
f 75/30/3 74/32/3 73/28/3
f 74/32/3 77/20/3 73/28/3
f 79/34/3 81/27/3 82/35/3
f 75/30/3 76/33/3 74/32/3
f 74/32/3 78/21/3 77/20/3
f 79/34/3 80/29/3 81/27/3
usemtl Ground_Grass
f 92/39/1 97/40/1 98/41/1
f 96/42/1 91/46/1 92/39/1
f 92/39/1 94/47/1 93/48/1
f 93/48/1 95/43/1 97/40/1
f 98/41/1 96/42/1 92/39/1
f 92/39/1 93/48/1 97/40/1
usemtl Ground_Path
f 4/1/1 6/5/1 8/6/1
f 42/1/1 44/5/1 43/6/1
f 96/42/1 97/40/1 95/43/1
f 4/1/1 2/2/1 6/5/1
f 42/1/1 41/2/1 44/5/1
f 96/42/1 98/41/1 97/40/1
