{
	"asset":{
		"generator":"Khronos glTF Blender I/O v5.0.21",
		"version":"2.0"
	},
	"scene":0,
	"scenes":[
		{
			"name":"Scene",
			"nodes":[
				0,
				1,
				2,
				3,
				4,
				5
			]
		}
	],
	"nodes":[
		{
			"mesh":0,
			"name":"Cylinder.004",
			"rotation":[
				0.5,
				0.5,
				-0.5,
				0.5000000596046448
			],
			"scale":[
				0.7665433883666992,
				1.626950979232788,
				0.674848198890686
			],
			"translation":[
				0.33362212777137756,
				0.758819043636322,
				-0.023541390895843506
			]
		},
		{
			"mesh":1,
			"name":"Plane.002",
			"scale":[
				0.5995468497276306,
				0.5995468497276306,
				0.5995468497276306
			],
			"translation":[
				-0.3961809575557709,
				0.0023469431325793266,
				0
			]
		},
		{
			"mesh":2,
			"name":"%P%Footprint"
		},
		{
			"mesh":3,
			"name":"%P%AnchorIn",
			"scale":[
				0.1305997669696808,
				0.1305997669696808,
				0.1305997669696808
			],
			"translation":[
				0.9889516234397888,
				0.013297781348228455,
				0
			]
		},
		{
			"mesh":4,
			"name":"%P%Center",
			"scale":[
				0.19623501598834991,
				0.19623501598834991,
				0.19623501598834991
			],
			"translation":[
				0.0006318092346191406,
				0.013297779485583305,
				-0.0012990720570087433
			]
		},
		{
			"mesh":5,
			"name":"%P%AnchorOut",
			"scale":[
				0.1305997669696808,
				0.1305997669696808,
				0.1305997669696808
			],
			"translation":[
				-0.9969608187675476,
				0.013297781348228455,
				0
			]
		}
	],
	"materials":[
		{
			"doubleSided":true,
			"name":"Material.001",
			"pbrMetallicRoughness":{
				"baseColorFactor":[
					0.023114344105124474,
					0.002103704260662198,
					0,
					1
				],
				"metallicFactor":0,
				"roughnessFactor":0.5
			}
		},
		{
			"doubleSided":true,
			"name":"Ground",
			"pbrMetallicRoughness":{
				"baseColorFactor":[
					0.2911919355392456,
					0.09804756939411163,
					0.07878553867340088,
					1
				],
				"metallicFactor":0,
				"roughnessFactor":0.5
			}
		},
		{
			"doubleSided":true,
			"name":"%P%",
			"pbrMetallicRoughness":{
				"baseColorFactor":[
					0.8000156879425049,
					0.017849527299404144,
					0.659480094909668,
					1
				],
				"metallicFactor":0,
				"roughnessFactor":0.5
			}
		}
	],
	"meshes":[
		{
			"name":"Cylinder.004",
			"primitives":[
				{
					"attributes":{
						"POSITION":0,
						"NORMAL":1,
						"TEXCOORD_0":2
					},
					"indices":3,
					"material":0
				}
			]
		},
		{
			"name":"Plane.003",
			"primitives":[
				{
					"attributes":{
						"POSITION":4,
						"NORMAL":5,
						"TEXCOORD_0":6
					},
					"indices":7,
					"material":1
				}
			]
		},
		{
			"name":"Plane",
			"primitives":[
				{
					"attributes":{
						"POSITION":8,
						"NORMAL":9,
						"TEXCOORD_0":10
					},
					"indices":7,
					"material":2
				}
			]
		},
		{
			"name":"Sphere.004",
			"primitives":[
				{
					"attributes":{
						"POSITION":11,
						"NORMAL":12,
						"TEXCOORD_0":13
					},
					"indices":14,
					"material":2
				}
			]
		},
		{
			"name":"Sphere.007",
			"primitives":[
				{
					"attributes":{
						"POSITION":15,
						"NORMAL":16,
						"TEXCOORD_0":17
					},
					"indices":14,
					"material":2
				}
			]
		},
		{
			"name":"Sphere.001",
			"primitives":[
				{
					"attributes":{
						"POSITION":18,
						"NORMAL":19,
						"TEXCOORD_0":20
					},
					"indices":14,
					"material":2
				}
			]
		}
	],
	"accessors":[
		{
			"bufferView":0,
			"componentType":5126,
			"count":504,
			"max":[
				1.1617792844772339,
				0.40917468070983887,
				1.33608078956604
			],
			"min":[
				-1.1617791652679443,
				-0.5404574871063232,
				-0.8712995648384094
			],
			"type":"VEC3"
		},
		{
			"bufferView":1,
			"componentType":5126,
			"count":504,
			"type":"VEC3"
		},
		{
			"bufferView":2,
			"componentType":5126,
			"count":504,
			"type":"VEC2"
		},
		{
			"bufferView":3,
			"componentType":5123,
			"count":1140,
			"type":"SCALAR"
		},
		{
			"bufferView":4,
			"componentType":5126,
			"count":4,
			"max":[
				1,
				0,
				1
			],
			"min":[
				-1,
				0,
				-1
			],
			"type":"VEC3"
		},
		{
			"bufferView":5,
			"componentType":5126,
			"count":4,
			"type":"VEC3"
		},
		{
			"bufferView":6,
			"componentType":5126,
			"count":4,
			"type":"VEC2"
		},
		{
			"bufferView":7,
			"componentType":5123,
			"count":6,
			"type":"SCALAR"
		},
		{
			"bufferView":8,
			"componentType":5126,
			"count":4,
			"max":[
				1,
				0,
				1
			],
			"min":[
				-1,
				0,
				-1
			],
			"type":"VEC3"
		},
		{
			"bufferView":9,
			"componentType":5126,
			"count":4,
			"type":"VEC3"
		},
		{
			"bufferView":10,
			"componentType":5126,
			"count":4,
			"type":"VEC2"
		},
		{
			"bufferView":11,
			"componentType":5126,
			"count":1984,
			"max":[
				0.9999997019767761,
				1,
				0.9999993443489075
			],
			"min":[
				-0.9999990463256836,
				-1,
				-1
			],
			"type":"VEC3"
		},
		{
			"bufferView":12,
			"componentType":5126,
			"count":1984,
			"type":"VEC3"
		},
		{
			"bufferView":13,
			"componentType":5126,
			"count":1984,
			"type":"VEC2"
		},
		{
			"bufferView":14,
			"componentType":5123,
			"count":2880,
			"type":"SCALAR"
		},
		{
			"bufferView":15,
			"componentType":5126,
			"count":1984,
			"max":[
				0.9999997019767761,
				1,
				0.9999993443489075
			],
			"min":[
				-0.9999990463256836,
				-1,
				-1
			],
			"type":"VEC3"
		},
		{
			"bufferView":16,
			"componentType":5126,
			"count":1984,
			"type":"VEC3"
		},
		{
			"bufferView":17,
			"componentType":5126,
			"count":1984,
			"type":"VEC2"
		},
		{
			"bufferView":18,
			"componentType":5126,
			"count":1984,
			"max":[
				0.9999997019767761,
				1,
				0.9999993443489075
			],
			"min":[
				-0.9999990463256836,
				-1,
				-1
			],
			"type":"VEC3"
		},
		{
			"bufferView":19,
			"componentType":5126,
			"count":1984,
			"type":"VEC3"
		},
		{
			"bufferView":20,
			"componentType":5126,
			"count":1984,
			"type":"VEC2"
		}
	],
	"bufferViews":[
		{
			"buffer":0,
			"byteLength":6048,
			"byteOffset":0,
			"target":34962
		},
		{
			"buffer":0,
			"byteLength":6048,
			"byteOffset":6048,
			"target":34962
		},
		{
			"buffer":0,
			"byteLength":4032,
			"byteOffset":12096,
			"target":34962
		},
		{
			"buffer":0,
			"byteLength":2280,
			"byteOffset":16128,
			"target":34963
		},
		{
			"buffer":0,
			"byteLength":48,
			"byteOffset":18408,
			"target":34962
		},
		{
			"buffer":0,
			"byteLength":48,
			"byteOffset":18456,
			"target":34962
		},
		{
			"buffer":0,
			"byteLength":32,
			"byteOffset":18504,
			"target":34962
		},
		{
			"buffer":0,
			"byteLength":12,
			"byteOffset":18536,
			"target":34963
		},
		{
			"buffer":0,
			"byteLength":48,
			"byteOffset":18548,
			"target":34962
		},
		{
			"buffer":0,
			"byteLength":48,
			"byteOffset":18596,
			"target":34962
		},
		{
			"buffer":0,
			"byteLength":32,
			"byteOffset":18644,
			"target":34962
		},
		{
			"buffer":0,
			"byteLength":23808,
			"byteOffset":18676,
			"target":34962
		},
		{
			"buffer":0,
			"byteLength":23808,
			"byteOffset":42484,
			"target":34962
		},
		{
			"buffer":0,
			"byteLength":15872,
			"byteOffset":66292,
			"target":34962
		},
		{
			"buffer":0,
			"byteLength":5760,
			"byteOffset":82164,
			"target":34963
		},
		{
			"buffer":0,
			"byteLength":23808,
			"byteOffset":87924,
			"target":34962
		},
		{
			"buffer":0,
			"byteLength":23808,
			"byteOffset":111732,
			"target":34962
		},
		{
			"buffer":0,
			"byteLength":15872,
			"byteOffset":135540,
			"target":34962
		},
		{
			"buffer":0,
			"byteLength":23808,
			"byteOffset":151412,
			"target":34962
		},
		{
			"buffer":0,
			"byteLength":23808,
			"byteOffset":175220,
			"target":34962
		},
		{
			"buffer":0,
			"byteLength":15872,
			"byteOffset":199028,
			"target":34962
		}
	],
	"buffers":[
		{
			"byteLength":214900,
			"uri":"airlock.bin"
		}
	]
}
